<svg xmlns="http://www.w3.org/2000/svg" viewBox="0 0 600 500" fill="none">
  <g id="china-map" stroke="#ccc" stroke-width="0.5">
    <path data-code="beijing" d="M422.9,134.2L424.3,133.7L422.8,133.3L420.7,133.1L419.3,133.0L418.2,131.7L416.9,131.1L416.3,129.6L415.1,130.4L413.7,130.7L414.6,132.4L413.1,132.6L411.8,133.1L410.2,134.2L408.6,134.2L408.0,135.5L409.4,136.4L409.0,138.0L406.4,138.6L405.0,139.5L405.6,140.8L404.9,142.1L405.6,143.6L407.1,143.5L408.4,144.5L409.8,144.0L411.4,143.9L413.1,144.7L414.5,145.0L415.1,143.6L417.0,143.7L418.7,142.9L418.8,141.2L417.6,140.3L418.9,139.2L420.6,139.1L422.0,138.7L423.3,137.6L422.2,136.7L421.6,135.0L422.9,134.2Z"/>
    <path data-code="tianjin" d="M426.8,145.5L428.1,144.8L426.8,143.6L425.5,142.6L424.6,141.1L425.2,139.8L426.7,140.1L425.8,138.7L424.8,137.6L423.3,137.6L422.2,138.8L421.0,140.3L421.5,142.0L421.0,143.4L419.4,143.2L417.8,143.5L417.6,144.9L418.6,146.1L418.4,147.9L417.3,149.0L417.0,150.8L418.3,151.8L420.0,152.3L421.3,153.0L423.1,153.5L424.9,153.0L426.5,152.4L425.7,151.0L427.6,150.7L427.5,148.8L428.7,147.7L428.3,146.3L426.6,146.0L424.7,146.1L425.9,145.4Z"/>
    <path data-code="hebei" d="M424.0,133.6L422.1,134.4L421.7,136.2L422.9,137.6L424.4,137.6L425.7,138.6L426.8,139.6L425.4,140.0L424.9,141.7L425.9,143.0L427.4,143.7L427.8,145.4L428.8,146.5L430.2,147.6L431.1,149.0L432.6,149.6L434.1,150.2L434.0,148.5L436.2,148.1L437.7,147.7L439.3,147.0L441.0,145.9L441.9,142.3L443.5,141.6L444.5,140.5L446.2,140.0L445.4,138.8L444.5,137.6L444.0,136.2L443.7,134.5L441.3,134.7L440.0,134.0L438.7,133.2L437.3,132.3L437.5,130.6L438.8,129.6L440.2,128.3L438.2,127.3L437.0,126.6L435.4,126.9L432.9,127.0L431.6,125.7L431.0,124.0L430.7,122.4L432.2,122.1L431.8,120.6L430.1,120.3L429.3,118.7L429.2,117.0L427.8,115.8L426.3,115.0L424.7,114.9L423.2,115.7L421.4,116.2L419.8,116.3L418.5,117.1L418.7,118.8L418.5,120.5L417.0,121.1L415.4,121.3L413.9,121.2L412.3,121.3L411.2,122.3L409.8,121.8L407.6,121.9L406.2,122.5L404.8,123.2L403.7,124.5L401.7,124.2L399.5,124.5L399.8,122.9L400.0,121.0L399.1,119.3L397.7,119.5L396.2,119.6L395.9,121.1L394.0,121.9L393.6,123.5L393.5,125.3L391.7,125.1L390.2,126.1L390.9,127.5L390.2,129.1L391.1,130.4L392.0,131.6L392.9,132.9L394.0,134.1L394.2,135.6L395.5,136.2L394.1,137.6L392.6,138.1L391.2,138.7L391.6,140.2L393.0,140.8L395.1,141.0L395.2,143.1L396.7,143.9L396.0,145.1L395.5,146.9L394.8,148.3L393.1,148.9L391.8,148.0L390.4,148.7L389.2,149.7L390.0,151.0L388.7,152.1L387.6,153.3L387.0,154.9L387.3,156.6L388.7,157.2L390.2,158.4L391.0,159.8L391.8,161.2L392.4,162.6L391.5,164.4L390.4,165.5L389.8,166.9L389.2,168.3L389.2,169.9L387.6,170.8L386.4,171.8L387.5,172.8L388.6,174.0L390.0,174.9L391.9,174.9L393.3,175.7L394.7,175.8L396.4,176.4L398.1,176.7L399.9,176.7L401.4,176.3L403.0,176.2L404.2,177.1L405.2,175.7L404.0,174.2L403.9,172.8L404.7,171.5L407.2,170.3L408.3,168.8L409.1,167.4L409.9,166.2L411.0,164.9L412.4,165.0L412.8,163.5L414.3,164.0L415.6,162.6L416.6,161.5L417.8,160.4L419.9,160.5L421.3,160.3L423.4,160.4L424.5,159.0L426.2,158.2L427.2,156.7L428.5,155.6L427.0,155.3L425.7,153.9L424.1,153.0L422.0,153.6L420.3,153.1L418.4,152.4L417.2,151.7L416.9,150.0L417.8,148.9L418.2,147.3L417.9,145.8L417.9,144.3L416.4,143.6L415.0,144.1L413.6,145.0L412.4,143.9L410.5,143.9L408.9,144.1L407.5,144.0L405.9,143.4L404.9,142.1L405.7,141.0L405.0,139.5L406.3,138.9L407.9,138.4L409.2,137.5L408.0,135.5L408.6,134.2L410.0,134.2L411.4,133.4L412.5,132.2L414.5,132.4L413.3,131.1L415.1,130.4L416.3,129.6L417.0,130.9L418.2,131.7L419.3,133.0L420.7,133.1L422.2,133.4L424.3,133.3ZM421.6,139.0L420.1,139.2L418.4,139.4L417.6,140.8L419.1,141.9L420.6,143.4L421.5,142.0L421.0,140.3ZM427.0,145.7L425.4,145.5L427.0,145.7ZM437.2,148.0L436.7,148.3L437.1,148.4L437.2,148.0Z"/>
    <path data-code="shanxi" d="M357.3,191.4L358.7,191.6L360.4,191.4L362.0,191.0L363.4,190.1L365.3,189.6L366.8,189.4L368.2,189.0L369.5,188.1L370.7,187.0L372.3,187.0L373.3,185.5L374.8,185.4L377.4,185.5L379.3,185.6L380.8,185.3L381.9,184.2L383.3,184.3L384.8,183.5L386.1,182.8L387.2,181.7L387.6,180.0L388.0,178.1L388.6,176.6L388.6,175.1L387.9,173.7L387.0,172.4L386.6,171.0L388.3,170.5L389.4,169.5L389.4,167.9L390.0,166.4L391.0,165.1L391.7,163.8L392.7,162.0L391.3,161.5L391.0,159.8L390.2,158.4L388.7,157.2L387.3,156.6L386.9,155.2L387.2,153.6L388.5,152.7L389.5,151.6L389.2,149.7L390.4,148.7L391.8,148.0L393.1,148.9L394.6,148.6L395.8,147.3L395.8,145.5L396.7,143.9L395.2,143.1L395.0,141.5L393.4,141.1L392.0,140.5L390.5,139.6L392.2,139.1L393.0,137.9L394.8,137.4L396.2,136.9L394.3,136.2L394.1,134.5L393.1,133.4L391.7,134.0L390.3,135.3L388.4,135.5L387.2,136.4L385.6,136.7L384.3,135.8L382.7,136.2L381.0,136.6L379.5,138.2L377.3,137.2L375.8,137.3L374.7,138.5L373.8,139.8L372.6,141.4L371.8,143.0L370.5,143.7L369.0,143.3L367.3,143.2L366.6,144.8L364.7,145.3L365.1,146.9L364.5,148.4L363.1,149.4L363.2,150.8L362.3,152.2L362.2,153.9L361.0,154.7L359.9,156.0L358.7,156.9L358.5,158.8L360.1,160.9L361.2,162.3L360.8,163.9L359.6,164.9L359.2,166.7L358.0,168.1L357.5,169.5L357.9,171.0L358.4,172.5L358.3,173.9L358.1,175.7L358.1,177.3L358.5,178.8L359.1,180.9L359.0,182.5L358.2,183.7L357.2,185.2L356.7,187.6L355.9,188.8L356.0,190.2L357.3,191.4Z"/>
    <path data-code="neimenggu" d="M232.9,113.0L234.8,116.3L236.0,118.3L237.4,120.8L239.2,123.9L237.0,125.6L239.8,128.6L242.0,130.2L243.8,131.0L243.9,134.3L246.6,133.3L248.2,134.0L250.0,132.3L251.1,133.3L251.7,131.6L255.4,131.7L259.4,131.1L261.6,132.8L261.1,134.6L261.1,137.1L259.6,137.9L258.8,139.2L257.2,139.7L255.1,140.8L257.8,141.1L259.1,142.0L260.7,142.6L262.5,143.5L263.7,144.7L265.2,145.6L267.4,145.5L267.5,147.4L267.4,149.1L268.6,149.9L270.0,149.6L271.2,150.7L272.8,151.6L274.2,152.1L276.3,152.6L277.8,151.2L279.1,150.4L277.9,149.5L276.8,148.5L278.5,148.1L281.0,147.5L282.6,146.9L284.2,147.7L286.7,148.2L289.0,147.5L291.0,146.2L293.4,145.6L295.8,144.9L298.0,145.3L298.8,147.8L299.0,149.5L297.6,150.3L295.9,152.7L291.7,155.0L292.5,156.2L291.2,158.1L291.6,160.2L293.7,160.8L295.7,162.3L298.0,164.0L299.4,164.5L301.0,164.0L303.1,163.5L304.8,163.3L306.9,162.9L308.4,162.2L310.4,161.7L312.2,161.8L313.8,160.8L314.5,158.9L313.9,157.1L314.3,155.4L314.7,153.8L315.0,152.2L315.9,150.7L316.8,149.3L317.4,147.9L318.8,147.7L319.8,146.6L321.3,146.3L323.1,145.7L323.5,147.3L324.8,148.6L323.9,150.8L322.7,152.0L322.1,154.4L320.6,155.9L321.9,156.7L323.4,157.3L324.9,157.6L326.6,157.6L328.6,158.1L329.3,159.4L330.7,159.9L332.3,160.4L333.8,160.7L335.1,161.8L336.7,162.4L338.8,162.3L340.8,162.2L342.2,161.9L342.3,160.1L342.4,158.5L343.7,159.7L344.9,158.7L343.9,157.4L344.3,155.5L345.5,154.3L346.9,153.0L348.1,152.0L349.1,150.9L350.6,150.0L351.4,148.8L353.0,148.3L352.8,146.7L354.7,147.0L354.9,145.2L357.3,146.4L358.6,145.7L359.6,146.8L361.1,145.6L362.1,144.5L364.1,144.0L363.7,145.5L366.3,145.3L367.3,143.6L369.0,143.3L370.5,143.7L371.9,143.4L372.2,141.7L373.2,140.5L374.2,139.2L375.3,137.8L376.8,136.9L378.4,137.5L380.5,137.8L382.2,136.2L384.3,135.8L385.6,136.7L387.2,136.4L388.4,135.5L389.9,135.4L391.5,134.8L392.0,133.3L391.8,131.8L391.1,130.4L389.6,129.3L391.0,128.6L390.4,127.2L390.7,125.5L392.3,125.1L393.8,124.2L393.2,122.6L394.6,121.3L396.2,120.8L396.6,119.4L398.5,119.5L399.8,120.5L400.2,122.1L399.9,123.6L401.3,124.4L402.7,124.7L404.3,124.4L405.4,122.9L406.9,122.3L408.4,121.5L410.1,122.3L412.0,122.0L413.1,120.7L414.5,121.2L416.2,121.3L417.7,120.9L418.2,119.1L418.5,117.1L419.8,116.3L421.4,116.2L423.3,116.2L424.1,114.9L425.9,115.1L427.7,115.5L429.0,116.7L428.8,118.2L430.0,119.0L430.8,120.3L432.2,121.9L430.7,122.4L431.0,124.0L432.0,125.3L432.3,126.9L434.0,126.8L436.0,127.1L437.4,127.3L439.3,127.4L441.2,127.1L442.0,125.8L441.7,124.3L441.2,122.6L441.5,120.9L441.8,119.5L441.1,118.1L442.5,117.6L444.2,118.0L445.4,118.6L446.4,119.7L447.4,120.9L448.1,122.4L449.6,122.3L450.8,121.2L452.2,120.5L453.2,119.2L454.6,118.7L456.2,118.3L457.9,118.2L459.3,117.1L460.9,116.1L462.6,116.0L464.3,116.0L465.6,115.3L466.9,114.0L468.6,114.1L470.4,114.1L470.0,112.7L471.9,112.7L473.6,113.1L475.0,113.4L476.6,113.3L478.2,112.7L478.5,111.1L480.2,110.8L482.0,110.2L482.4,108.5L481.2,107.1L479.7,106.6L480.9,105.4L480.8,103.7L479.8,101.9L479.5,100.2L478.0,98.2L477.4,96.9L474.7,97.7L473.3,98.4L471.5,99.1L469.7,99.3L469.5,97.6L468.5,96.1L467.8,94.8L467.1,92.8L467.8,91.3L468.8,90.0L468.1,88.4L466.7,87.1L466.4,85.3L464.9,85.2L463.3,84.7L464.5,83.9L464.4,82.4L466.0,82.3L467.5,83.2L468.9,84.0L470.1,83.2L471.4,84.4L472.8,84.9L474.0,83.7L474.1,81.7L476.5,81.4L477.8,80.0L476.2,78.2L476.6,76.8L478.3,76.7L479.5,75.9L481.8,75.8L482.0,74.3L480.7,73.2L479.3,72.9L479.6,74.4L478.2,74.2L477.1,75.3L475.2,74.6L475.1,73.2L473.4,71.9L471.7,70.9L470.6,69.4L471.8,68.1L473.9,66.9L475.4,66.1L477.6,65.3L478.9,63.7L481.2,63.0L482.7,61.8L484.2,60.6L485.7,59.5L488.0,58.1L488.6,59.6L489.5,60.9L489.4,62.4L490.7,61.3L490.7,59.8L490.5,58.3L491.4,56.5L492.1,55.2L493.1,53.5L493.6,52.1L495.3,52.0L497.0,51.9L497.3,50.2L496.9,48.5L496.2,47.2L497.0,46.0L496.7,44.5L497.9,43.7L498.6,42.2L499.9,40.9L501.1,39.6L502.4,39.0L502.7,37.4L503.5,36.2L504.8,35.2L504.1,33.7L502.9,32.5L501.5,31.4L500.2,30.1L498.9,29.1L497.7,28.5L496.2,28.4L495.0,29.5L493.9,30.6L492.0,31.3L490.1,30.9L488.7,31.7L487.3,31.3L485.5,31.4L484.0,31.0L482.3,31.2L480.5,31.8L478.9,32.1L477.3,31.7L475.8,31.2L474.7,30.0L474.4,28.5L474.0,27.1L473.5,25.2L472.7,23.9L473.9,22.7L472.2,22.4L470.9,21.2L469.6,20.4L468.0,20.1L467.0,21.3L465.8,22.3L464.0,21.9L462.8,20.7L461.2,20.2L459.9,19.3L461.6,17.9L462.8,17.1L463.6,15.9L465.0,14.8L463.5,13.8L462.7,12.6L461.2,12.3L459.4,12.7L457.8,12.6L456.2,12.6L454.8,13.4L453.1,14.6L451.7,15.8L449.9,16.9L448.1,17.6L448.3,19.2L450.6,19.0L452.2,18.8L453.5,19.3L454.3,20.9L454.6,22.5L455.1,23.9L454.1,25.4L452.4,26.1L451.3,27.0L450.0,27.7L448.4,28.5L447.7,29.9L446.8,31.3L445.6,32.5L445.3,34.0L443.8,35.2L443.1,36.7L441.8,38.0L440.9,39.4L439.6,40.4L441.0,40.6L441.4,42.0L440.7,43.4L439.3,44.2L436.5,44.5L434.7,44.8L433.6,45.7L432.0,46.3L430.5,47.3L429.1,47.8L427.6,48.4L425.6,48.2L424.2,47.6L422.2,47.6L420.2,47.0L417.1,45.6L414.2,49.5L410.6,54.9L408.6,57.9L408.5,60.7L405.7,61.7L406.2,64.0L409.6,66.3L411.2,65.0L412.7,64.4L414.4,64.8L416.5,64.3L418.5,64.2L420.5,64.9L423.2,66.7L424.2,65.5L427.3,63.1L429.5,63.1L431.3,62.8L433.0,63.1L436.3,65.4L439.7,66.4L440.4,67.8L441.9,68.2L442.7,69.4L443.8,70.4L445.2,70.9L446.0,72.3L447.2,73.7L447.2,75.5L445.8,76.4L444.1,76.5L442.5,76.3L440.9,76.2L439.1,75.9L437.6,75.4L435.4,75.7L433.2,75.6L431.6,75.5L430.2,75.9L428.9,76.5L427.3,77.3L425.6,77.0L424.3,76.6L423.3,77.9L421.9,78.9L420.5,79.0L418.4,78.8L416.5,79.3L415.2,80.1L414.1,81.1L412.7,82.7L412.9,84.5L411.3,85.4L409.6,85.9L407.4,87.5L404.2,88.2L402.4,88.1L400.6,88.3L398.4,87.7L396.5,88.2L395.7,89.9L394.3,90.9L392.8,92.0L390.5,92.7L388.6,94.0L387.0,94.2L383.0,93.9L381.3,93.5L379.2,93.1L377.6,91.9L376.3,91.3L373.6,91.2L371.6,91.4L370.3,92.2L369.0,94.1L368.5,96.0L367.1,97.7L368.1,99.0L369.3,100.9L371.3,102.1L372.2,103.9L370.6,104.6L368.8,106.2L367.4,106.3L364.8,107.3L363.3,107.9L361.4,109.6L360.2,110.7L358.1,112.6L357.0,113.5L355.0,114.2L352.8,114.6L351.2,115.1L349.4,116.1L347.0,116.5L344.5,116.3L342.8,116.9L339.9,116.4L337.7,116.4L335.7,116.5L334.3,116.8L332.4,116.7L330.8,116.7L328.3,116.7L325.9,117.6L323.4,117.9L321.8,118.3L319.5,119.1L316.1,120.3L313.6,121.1L312.2,121.7L310.2,122.6L308.8,123.0L306.7,124.6L304.8,124.0L302.1,123.9L302.2,121.8L300.1,122.2L297.9,122.5L295.9,122.5L292.1,121.8L289.7,121.0L288.0,120.4L285.1,119.2L283.4,119.1L279.2,118.5L277.2,116.5L274.2,115.6L271.7,115.0L267.6,114.2L262.6,114.0L259.6,114.4L254.9,115.2L249.8,114.8L245.8,114.5L242.5,114.4L239.1,113.9L233.9,113.2Z"/>
    <path data-code="liaoning" d="M481.1,141.8L482.6,141.6L485.1,141.5L486.5,141.5L487.8,140.5L489.0,139.6L489.8,138.1L491.4,137.0L493.4,135.7L494.8,135.2L496.0,134.3L497.4,133.8L498.9,133.7L500.1,132.8L501.6,131.5L501.4,130.0L502.4,128.6L501.4,127.6L500.4,126.4L499.7,125.1L499.1,123.7L498.0,122.8L497.8,121.4L498.9,120.0L497.9,118.8L496.6,117.7L496.3,116.2L495.8,114.7L494.6,113.7L493.6,112.8L493.7,111.2L492.9,110.0L491.9,111.1L489.9,112.5L489.0,111.3L488.1,109.4L486.6,108.7L485.2,107.8L484.2,106.7L482.8,107.1L482.4,108.5L482.0,110.2L480.6,110.7L479.1,111.1L477.8,111.8L476.6,113.3L475.0,113.3L473.6,113.1L472.1,113.1L470.8,112.6L470.4,114.1L468.6,113.6L466.9,114.0L465.6,115.3L464.3,116.0L462.6,116.0L460.9,116.1L459.3,117.1L458.1,118.0L456.6,118.0L455.3,118.5L453.7,119.2L452.2,119.6L450.8,121.1L449.6,122.1L448.8,123.5L447.8,121.6L446.9,120.3L446.4,118.6L444.8,118.3L443.5,117.8L441.7,117.8L441.1,119.2L442.0,120.4L441.6,121.9L441.3,123.5L442.3,124.6L442.0,126.2L440.7,127.2L439.6,128.9L438.1,129.4L437.2,131.7L438.1,132.9L439.5,133.4L440.8,134.6L442.5,134.6L444.1,135.4L444.6,137.2L445.6,138.5L446.4,139.8L448.7,139.0L450.4,138.6L452.1,138.1L452.9,136.7L453.7,135.4L455.6,134.1L457.1,133.0L458.2,131.7L460.0,131.6L461.4,131.3L463.2,131.7L464.6,131.3L466.1,132.1L466.9,133.3L468.1,134.1L469.2,135.2L468.1,136.4L466.9,137.4L465.8,139.1L464.6,140.3L463.2,140.9L461.7,141.7L461.5,143.4L460.1,143.5L459.6,145.0L461.3,145.9L463.1,146.2L463.0,147.8L462.1,149.0L460.3,149.2L458.5,149.7L458.5,151.3L459.9,151.4L462.1,151.1L463.6,150.7L464.2,149.4L465.9,149.6L467.3,148.8L467.8,147.3L469.3,146.3L470.6,145.4L472.2,144.9L474.3,144.0L475.8,143.7L477.1,142.9L478.5,142.7L480.6,142.2ZM471.4,147.0L471.4,147.2L471.8,147.2L471.4,147.0ZM476.9,145.3L477.0,145.0L476.6,145.0L476.9,145.3ZM482.8,142.2L483.2,142.1L482.9,142.0L482.8,142.2Z"/>
    <path data-code="jilin" d="M538.3,116.7L539.6,116.1L539.7,114.5L540.2,113.0L540.7,111.5L542.3,111.4L543.6,111.9L544.3,113.6L545.5,114.6L546.9,115.0L547.5,116.5L548.0,114.9L546.4,114.1L547.3,112.8L548.8,112.7L550.4,112.5L551.8,112.4L552.9,111.4L553.4,109.8L554.0,108.2L554.4,106.7L552.8,107.0L551.1,106.4L549.3,106.1L547.9,105.4L546.6,104.8L545.6,103.6L545.2,101.8L543.5,102.3L541.8,101.4L540.2,101.8L538.7,102.7L537.0,102.7L535.5,103.3L534.6,104.4L533.5,105.8L531.5,105.9L530.6,104.5L530.3,102.9L529.2,102.0L528.2,100.4L527.5,99.0L527.5,97.6L526.0,96.9L524.8,98.2L524.1,99.8L522.7,100.7L521.1,100.8L519.8,99.7L518.3,97.6L519.1,96.2L517.5,95.5L515.8,95.5L514.2,96.1L513.7,94.2L514.5,92.8L513.6,91.3L512.4,90.5L510.8,90.1L509.4,89.7L507.7,90.2L505.9,90.7L504.3,90.4L502.9,89.7L501.8,88.7L501.4,87.0L499.6,87.4L498.3,88.2L496.7,88.1L495.2,87.2L493.4,87.6L491.4,87.8L489.3,87.7L488.0,86.6L486.7,85.8L485.7,84.8L485.5,83.3L485.6,81.8L485.1,80.4L483.4,79.8L481.8,80.0L480.4,80.1L478.8,80.0L477.3,80.4L474.1,81.7L474.5,83.2L474.1,84.6L472.7,84.6L471.4,83.7L469.9,83.7L467.5,83.5L466.0,82.5L464.4,82.4L464.5,83.9L463.3,84.7L464.9,85.4L466.4,85.3L466.7,87.1L468.3,87.7L468.9,89.3L467.7,90.6L467.5,92.4L467.6,94.0L467.8,95.6L468.8,96.9L469.4,98.5L471.2,99.2L472.7,98.8L474.7,97.7L476.3,96.8L477.3,98.0L478.7,99.1L479.4,100.6L480.5,102.9L481.0,104.3L480.2,105.6L480.1,107.1L481.8,107.6L483.2,106.9L484.5,107.6L485.8,108.4L487.5,108.6L489.0,109.9L489.5,111.3L491.0,112.0L492.0,110.6L493.8,109.8L493.7,111.4L493.7,113.1L494.8,114.2L495.6,115.5L496.7,116.5L497.8,117.9L498.3,119.2L497.7,120.9L497.7,122.3L498.2,123.8L499.4,125.0L500.1,126.4L501.0,127.7L502.4,128.6L501.4,130.0L500.4,131.2L502.3,131.2L504.0,131.3L505.1,130.4L506.1,129.1L507.5,127.9L508.5,126.8L509.6,125.0L510.8,123.8L512.3,123.2L513.8,123.0L515.0,124.3L516.0,125.2L517.6,125.6L519.1,126.1L521.1,126.1L522.5,126.0L524.2,126.4L525.5,125.6L526.0,124.2L524.7,123.3L524.3,121.6L526.0,120.4L527.6,120.4L529.2,120.3L530.7,120.2L532.2,120.4L533.7,119.3L534.6,118.1L535.7,116.9L537.3,116.7Z"/>
    <path data-code="heilongjiang" d="M481.5,80.2L482.9,79.9L484.5,79.5L485.3,80.7L485.9,82.2L486.1,83.9L486.8,85.3L488.1,86.3L489.0,87.6L490.6,88.0L492.0,87.6L493.9,87.7L495.4,87.8L497.3,87.9L499.0,87.5L500.4,87.2L501.6,88.2L502.6,89.4L504.0,90.0L505.7,90.5L507.1,90.2L509.2,89.6L510.8,90.1L512.4,90.5L513.6,91.3L514.6,92.4L513.6,93.6L514.1,95.1L515.5,95.3L517.5,95.5L519.0,96.0L518.3,97.6L519.6,98.8L520.7,100.4L522.4,100.9L524.0,100.2L524.1,98.7L525.2,97.4L526.7,96.6L527.7,97.9L527.4,99.6L528.6,101.0L529.2,102.5L530.3,103.8L531.0,105.4L532.7,106.1L534.2,105.7L534.8,104.3L536.4,103.2L538.7,102.7L540.2,101.8L541.6,101.2L542.3,102.9L544.0,102.0L545.5,101.1L545.7,102.9L545.7,104.3L547.4,105.1L548.9,105.7L549.9,106.7L551.7,106.2L553.1,106.8L553.5,105.4L553.4,103.4L553.9,102.0L552.5,94.7L551.2,93.7L552.4,92.9L553.9,92.6L555.3,92.1L556.8,91.5L558.0,90.7L559.2,89.1L560.6,89.3L562.5,89.9L564.6,90.4L568.0,91.2L569.5,91.6L570.9,91.0L571.2,89.6L571.6,87.8L573.4,86.6L574.7,85.9L575.0,84.4L576.1,83.3L577.2,81.9L577.8,80.5L578.9,79.7L578.8,78.1L578.9,76.7L580.0,75.6L580.1,73.9L580.8,72.2L581.9,71.1L581.4,69.7L582.6,68.7L584.3,68.5L585.6,67.6L587.0,65.9L586.0,64.5L584.9,63.4L586.0,61.6L586.9,60.5L589.2,59.7L587.7,59.5L585.7,59.3L583.8,59.4L581.6,59.6L580.0,60.1L578.5,60.5L576.8,61.4L575.4,62.1L573.1,62.2L571.5,61.9L570.2,62.9L568.6,63.8L567.1,63.8L566.5,65.2L564.4,65.5L562.7,66.0L560.9,66.0L559.2,66.3L557.5,66.4L555.7,65.6L554.0,65.7L552.5,66.2L551.1,65.8L550.4,63.9L549.0,62.9L549.2,61.4L549.7,60.0L549.2,58.4L547.8,57.7L547.9,55.7L546.5,54.6L544.6,54.9L543.1,54.1L541.4,53.3L540.6,51.9L539.5,50.9L537.9,50.8L536.8,49.4L535.6,50.2L534.0,50.2L532.7,49.3L530.6,49.1L529.4,48.1L527.9,48.0L526.4,48.4L524.9,48.5L523.2,48.0L521.4,48.0L520.1,47.0L518.8,45.8L518.4,44.1L519.3,42.8L518.0,41.5L517.2,40.2L517.3,38.5L516.6,37.1L515.1,35.4L513.6,34.2L512.8,32.6L512.2,31.2L512.0,29.8L510.7,28.8L510.6,27.2L509.6,26.2L508.6,24.9L509.7,23.8L508.1,23.2L507.4,21.7L506.3,20.5L505.0,19.2L505.4,17.7L503.8,17.4L502.7,16.4L501.3,16.7L501.0,15.0L499.7,14.5L498.2,14.0L496.8,13.5L495.3,13.4L493.9,13.8L492.4,14.0L491.1,13.4L489.6,13.2L488.6,12.2L486.7,12.1L485.4,11.2L483.6,10.7L481.9,10.1L480.5,10.5L479.0,10.0L477.4,10.6L475.6,10.8L473.9,11.0L472.4,10.9L470.8,11.1L469.2,10.9L467.7,11.3L465.5,11.3L463.8,11.6L462.0,12.2L463.3,12.9L464.4,14.0L464.0,15.4L463.0,16.6L461.8,17.6L460.2,18.5L461.1,20.0L462.6,20.6L464.0,21.7L465.8,22.3L467.0,21.3L468.0,20.2L469.6,20.4L470.9,21.2L472.0,22.3L473.4,22.5L472.7,23.9L473.5,25.2L474.0,27.1L474.4,28.5L474.7,30.0L475.8,31.2L477.3,31.7L478.9,32.1L480.5,31.8L482.3,31.5L484.0,31.0L485.5,31.4L487.3,31.3L488.7,31.7L490.0,31.1L491.4,31.4L492.7,30.8L494.4,30.2L495.6,29.2L497.0,28.5L498.5,28.9L499.9,29.9L501.5,31.4L502.6,32.4L503.8,33.5L504.7,34.7L503.8,35.9L502.5,36.7L502.6,38.2L501.5,39.4L500.3,40.2L499.3,41.5L498.1,42.6L497.7,44.0L497.2,45.3L497.0,47.3L497.1,49.0L497.4,50.6L496.7,51.9L495.3,52.2L493.6,52.1L493.1,53.5L492.3,54.8L491.3,56.1L491.0,57.5L490.3,59.0L491.0,60.4L490.5,61.8L489.0,60.5L488.6,59.1L486.8,58.8L484.2,60.6L482.7,61.8L481.6,62.8L478.9,63.7L478.1,64.9L476.5,65.7L474.7,66.3L472.3,67.6L471.5,69.0L471.7,70.9L473.1,71.9L474.7,72.1L475.1,73.8L476.1,75.1L477.6,75.3L478.9,74.1L480.7,73.2L481.4,74.5L480.6,75.8L479.1,76.0L477.0,76.6L476.2,78.2L477.4,79.5L478.8,80.0L480.4,80.1Z"/>
    <path data-code="shanghai" d="M456.3,225.7L457.2,226.9L458.6,227.6L459.8,228.5L461.3,228.5L462.9,227.8L465.8,227.7L466.6,226.2L464.9,224.0L462.9,222.3L461.1,221.3L459.6,221.3L458.3,222.3L458.0,224.4L456.1,224.6ZM466.4,220.0L464.0,219.4L462.0,218.7L460.3,217.6L458.4,218.6L460.0,220.0L462.4,220.8L465.0,221.7L466.5,221.5L466.4,220.0ZM464.8,222.7L462.8,221.5L464.1,222.5ZM464.8,222.5L466.8,223.2L465.2,222.3ZM463.2,221.6L463.2,221.5L462.7,221.3L463.2,221.6ZM465.6,223.6L465.8,224.0L466.0,223.7L465.6,223.6Z"/>
    <path data-code="jiangsu" d="M422.5,191.8L421.2,193.0L420.6,191.0L419.3,189.8L418.3,188.3L416.6,188.2L414.4,188.6L413.7,190.0L414.7,191.3L415.8,192.3L417.5,192.8L419.3,193.5L420.1,195.1L421.4,196.5L423.0,196.3L424.4,196.6L425.9,197.3L426.6,199.5L428.1,199.9L429.6,199.4L430.1,200.8L429.3,202.4L428.8,204.1L429.4,205.5L430.7,204.7L431.3,206.5L431.4,208.2L432.6,209.4L434.3,209.3L436.1,209.3L436.8,207.5L438.4,207.2L439.5,208.4L440.4,209.5L439.9,211.0L438.2,211.5L436.7,210.5L435.2,210.6L435.5,212.5L435.4,213.9L433.8,214.5L432.7,215.6L433.5,217.5L434.3,218.9L436.0,219.8L437.3,220.5L437.0,222.1L435.9,223.2L438.3,223.6L439.9,223.1L441.6,223.4L442.8,224.4L444.3,224.6L445.8,224.2L447.3,224.9L448.9,226.3L450.8,226.5L452.2,227.4L454.0,227.4L455.1,225.9L456.2,225.0L458.0,224.4L458.5,222.6L459.5,221.2L458.6,218.7L459.8,217.6L461.3,218.5L462.9,219.2L466.4,220.0L465.6,217.6L464.5,216.0L462.2,215.0L461.5,213.6L461.3,212.2L459.8,211.7L458.4,210.9L456.9,210.5L457.1,208.1L456.6,206.7L455.8,204.7L454.8,203.5L454.3,201.8L453.3,200.4L452.4,198.5L451.3,196.3L450.8,194.7L448.8,193.4L447.5,192.8L446.1,192.5L444.5,191.7L442.8,190.7L441.4,189.8L440.3,188.7L440.7,187.2L438.7,187.1L437.1,187.4L436.6,188.8L435.8,190.1L434.2,190.4L433.0,191.5L432.8,193.1L431.1,193.3L429.8,191.7L428.6,190.7L427.1,190.9L426.0,191.9L424.7,192.7L423.4,191.9Z"/>
    <path data-code="zhejiang" d="M433.1,251.8L434.6,251.9L436.1,252.2L435.8,254.0L436.7,255.4L437.2,257.1L437.6,258.7L438.8,259.6L440.5,260.2L441.8,259.1L443.2,258.3L444.5,257.8L445.1,259.2L445.4,260.7L447.3,261.0L448.8,260.4L450.3,260.0L451.9,261.7L453.0,262.7L453.3,261.1L454.5,259.6L454.5,257.6L455.8,256.9L456.7,255.6L458.3,256.4L457.2,255.1L457.8,253.7L459.7,254.3L461.1,252.7L462.3,251.7L463.5,250.8L463.2,249.2L463.8,247.7L464.6,246.3L464.0,244.8L463.0,243.4L464.5,243.4L466.4,244.5L466.4,242.6L466.5,241.1L466.7,239.5L465.1,238.8L466.7,237.7L468.0,236.6L466.4,235.9L464.6,235.5L463.4,234.8L462.0,233.0L460.8,231.9L459.4,231.6L458.1,230.5L459.0,229.4L459.3,227.9L457.8,227.4L457.2,225.8L455.6,225.8L454.6,227.0L453.2,227.5L451.9,226.6L450.0,226.6L448.3,225.8L447.1,224.3L445.2,224.3L444.4,225.7L443.7,227.1L443.0,228.7L441.5,229.4L441.6,231.2L440.7,232.6L439.0,232.5L437.3,232.4L437.0,233.9L437.4,236.1L436.0,237.2L435.1,238.9L433.7,239.5L432.3,240.5L430.8,241.2L429.8,242.2L429.4,244.1L430.3,245.2L431.6,245.8L432.8,247.9L433.1,249.7L433.5,251.5ZM468.2,235.6L469.7,236.0L469.5,234.5L467.6,233.9L466.1,233.9L466.9,235.5ZM470.7,231.5L469.3,230.9L470.7,231.5ZM465.2,247.2L465.4,247.1L465.4,246.8L465.2,247.2ZM466.2,228.0L467.5,229.7L466.6,228.3ZM465.6,250.1L465.9,249.8L465.6,249.8L465.6,250.1ZM468.4,238.8L467.5,237.5L468.4,238.8ZM472.1,229.3L472.0,229.0L471.8,229.2L472.1,229.3ZM465.5,250.5L465.8,250.4L465.6,250.3L465.5,250.5ZM466.2,243.2L466.5,243.5L466.5,243.2L466.2,243.2ZM467.0,237.8L466.8,237.9L467.0,238.2L467.0,237.8ZM458.5,256.6L458.5,256.6L458.5,256.6L458.5,256.6ZM474.6,228.8L474.5,228.5L474.3,228.6L474.6,228.8ZM467.0,235.9L467.1,236.1L467.2,235.9L467.0,235.9ZM457.7,254.8L458.1,254.6L458.0,254.5L457.7,254.8ZM468.1,235.7L468.1,235.7L468.1,235.7L468.1,235.7Z"/>
    <path data-code="anhui" d="M415.8,197.0L414.8,198.4L413.2,199.4L411.6,200.0L410.7,198.5L409.8,197.1L408.4,196.6L407.0,196.6L405.9,198.4L406.4,199.9L405.6,201.5L404.0,201.9L404.2,203.5L403.6,205.3L401.2,205.9L399.7,206.6L401.1,207.4L402.6,208.1L402.5,209.9L403.6,211.0L405.5,211.6L406.7,212.4L408.0,211.5L409.3,210.9L409.2,212.6L409.4,214.1L409.4,215.8L409.2,217.6L407.7,218.5L406.0,219.2L404.9,220.3L404.3,222.0L405.2,223.4L406.3,224.5L408.1,224.8L409.6,225.2L410.9,226.3L409.5,226.9L408.8,228.2L408.5,229.7L409.2,231.1L410.0,232.7L411.0,234.4L411.4,236.4L412.5,237.5L414.6,236.5L415.7,235.0L417.2,234.9L418.7,235.9L417.5,237.4L416.3,238.9L418.2,239.5L419.6,238.5L420.9,237.6L421.6,236.2L423.0,237.2L423.9,238.4L425.3,239.4L427.1,239.6L429.1,239.5L430.4,240.3L432.0,241.0L433.7,240.1L434.9,238.8L436.0,238.0L436.9,236.5L437.5,235.2L437.8,233.5L438.0,232.0L439.6,232.5L441.0,232.2L441.6,230.6L441.7,229.1L443.0,228.1L443.7,226.7L444.4,225.1L442.8,224.4L441.7,223.0L440.3,223.3L438.6,223.6L436.5,223.7L436.0,222.3L437.3,221.1L436.3,219.4L435.1,218.6L433.6,218.4L432.4,217.0L433.1,215.5L435.1,214.3L435.5,212.5L434.7,211.2L436.1,210.5L437.6,210.7L438.8,211.4L440.5,210.8L440.2,208.4L438.6,207.2L437.0,207.2L436.0,208.9L434.4,209.4L432.9,209.5L431.9,208.2L431.3,206.8L431.1,204.9L429.4,205.5L428.4,204.2L429.2,202.9L430.1,201.1L430.1,199.4L428.1,199.9L426.7,200.0L426.8,198.4L425.5,196.9L423.7,196.9L422.2,196.4L420.8,196.0L419.3,194.5L418.0,193.5L416.4,192.7L414.8,191.7L413.3,191.2L412.0,192.1L412.2,193.5L413.6,194.1L415.0,194.4L415.2,196.0Z"/>
    <path data-code="fujian" d="M438.5,283.6L437.4,282.4L437.5,281.0L439.0,281.2L439.4,282.6L440.6,281.5L442.0,280.9L440.8,280.1L440.8,278.6L442.7,278.6L443.6,279.8L444.8,278.8L446.6,278.9L445.9,277.4L444.8,278.5L443.5,277.7L444.3,276.4L444.4,274.8L445.0,273.4L444.1,272.1L445.7,271.0L447.4,270.4L446.3,269.4L445.4,267.9L443.9,267.8L446.3,267.1L448.3,266.2L447.6,267.5L446.2,268.7L447.5,268.0L449.2,267.6L449.1,266.1L450.3,264.3L451.5,263.4L451.6,261.8L451.1,260.3L449.1,260.1L447.5,260.7L445.7,261.2L444.9,260.0L444.4,258.6L442.8,259.1L441.1,259.8L439.6,260.0L438.3,259.4L437.3,257.8L436.8,256.0L435.9,254.9L436.6,253.5L435.8,251.6L433.7,252.1L432.0,252.5L431.3,253.9L429.9,254.6L428.5,254.8L427.0,255.6L425.3,255.9L423.9,255.2L422.2,255.8L421.9,257.3L420.5,257.8L420.6,259.8L420.9,261.3L420.0,262.8L419.0,264.0L416.6,264.4L415.3,265.7L415.1,267.2L415.8,268.8L415.4,270.2L414.1,270.9L414.8,272.6L413.6,273.8L412.3,274.6L411.4,276.0L410.6,277.3L410.4,279.1L409.7,280.5L408.9,281.7L409.5,283.7L410.8,284.7L412.3,284.9L413.9,284.5L414.4,286.0L415.6,286.9L417.5,286.4L417.7,288.1L418.7,289.3L419.0,290.8L418.9,292.3L419.4,294.2L420.1,295.8L421.4,296.4L423.2,297.1L424.3,295.7L425.8,294.9L427.1,293.8L428.2,292.8L429.0,291.4L430.5,290.3L429.8,289.0L430.2,287.4L432.6,287.7L433.8,287.0L435.4,287.3L436.4,285.8L435.1,284.8L436.6,284.5L438.3,284.5ZM432.9,287.9L431.7,288.9L433.3,288.9ZM443.9,277.3L444.2,276.9L443.9,277.1L443.9,277.3ZM431.2,289.0L431.6,288.6L431.2,288.6L431.2,289.0ZM447.0,267.1L447.2,267.4L447.4,267.1L447.0,267.1ZM447.2,272.4L447.5,272.3L447.1,272.1L447.2,272.4Z"/>
    <path data-code="jiangxi" d="M430.8,241.2L429.9,239.9L428.4,239.8L426.5,239.8L424.7,239.4L423.9,237.9L422.8,236.9L421.2,236.2L420.6,237.8L419.4,238.7L417.5,239.6L416.3,238.4L417.4,237.3L418.5,236.5L417.6,235.2L416.0,234.8L415.4,236.3L413.4,237.0L411.8,237.1L409.9,238.1L407.9,237.4L406.5,237.0L405.2,238.0L403.6,238.9L401.8,238.5L402.2,240.1L400.8,239.6L399.5,240.5L398.5,241.6L396.9,241.7L395.5,241.8L393.8,241.7L392.9,243.0L391.2,243.8L390.9,245.2L392.1,246.6L392.5,248.6L393.4,250.0L393.7,251.5L392.4,252.6L391.6,253.8L390.1,254.5L388.8,255.8L388.5,257.3L387.7,258.6L387.6,260.1L388.8,260.8L390.2,261.4L389.3,262.9L390.3,264.5L389.8,266.0L390.5,267.9L392.4,268.3L392.2,269.8L391.6,271.2L393.1,271.7L392.2,273.1L391.6,274.8L390.6,276.2L391.2,277.6L390.8,279.1L391.5,280.7L393.1,280.3L395.0,280.3L396.4,279.3L398.1,280.3L398.3,281.8L396.6,282.6L395.1,283.8L394.6,285.1L392.9,286.3L394.2,287.3L395.4,288.2L396.9,287.7L398.3,287.5L399.8,287.3L401.0,286.5L402.5,286.1L404.1,285.8L405.7,286.1L407.1,287.1L408.7,287.5L408.0,286.1L408.4,284.6L409.5,283.7L409.1,282.1L409.7,280.5L410.4,279.1L410.6,277.3L411.4,276.0L412.3,274.6L413.7,274.1L414.8,272.6L413.8,271.5L414.9,270.3L416.2,269.2L415.5,267.5L415.3,266.0L416.1,264.8L417.9,264.0L419.3,263.6L421.0,261.9L420.6,260.4L420.3,258.7L421.5,257.6L422.5,256.2L423.9,255.2L425.3,255.9L427.0,256.0L428.2,255.1L429.9,254.9L431.3,253.9L432.6,252.8L433.5,251.5L433.5,250.0L433.1,248.1L431.8,246.7L430.6,245.2L429.4,244.1L429.8,242.2L430.8,241.2Z"/>
    <path data-code="shandong" d="M413.7,191.1L414.0,189.0L415.4,188.5L417.5,188.4L418.9,189.1L420.3,190.4L421.0,191.8L422.5,192.0L424.0,192.5L425.8,192.4L427.1,191.6L428.6,190.7L430.1,191.3L430.7,192.8L432.6,193.2L433.0,191.5L434.2,190.4L436.0,190.5L436.6,189.1L437.1,187.4L438.7,187.1L440.5,186.6L442.0,186.9L442.3,185.4L443.6,184.3L444.7,182.2L446.2,181.4L447.4,180.6L448.5,179.3L449.8,178.6L449.3,177.1L450.8,176.3L451.9,177.5L453.4,177.1L454.3,175.8L454.4,174.3L455.7,173.6L457.1,172.8L455.8,172.1L457.5,172.6L458.8,171.8L460.2,171.3L461.5,170.8L463.4,171.1L464.4,170.0L466.0,169.1L467.6,169.3L469.3,170.0L471.0,169.6L471.8,168.4L472.1,166.8L472.4,165.2L471.3,164.3L469.9,164.5L468.3,164.3L466.8,163.4L464.5,164.0L462.7,164.1L461.0,163.1L459.3,162.9L458.5,161.6L456.7,161.0L454.8,160.5L453.4,161.2L451.3,161.8L449.9,162.1L449.2,163.9L447.4,164.5L446.8,166.0L445.4,167.2L443.9,167.3L441.8,167.3L440.4,166.3L438.9,166.0L437.9,163.7L438.7,162.3L440.7,162.2L441.3,160.8L439.6,160.4L438.5,158.9L437.6,157.6L435.6,157.5L434.2,158.4L432.8,157.8L431.1,157.5L429.4,156.9L428.0,156.2L426.8,157.4L425.1,158.2L424.1,159.7L422.6,160.2L421.0,160.4L418.8,160.4L417.3,160.9L415.9,162.5L414.7,163.5L413.3,162.9L412.3,163.9L411.2,165.0L409.9,166.2L409.1,167.4L408.1,168.5L407.2,170.3L405.7,170.7L404.2,172.1L403.3,173.3L404.2,174.8L405.3,176.6L404.2,178.3L403.9,180.0L405.4,179.2L406.9,178.8L408.5,177.9L410.1,177.6L409.0,178.8L407.7,179.6L405.7,180.6L404.4,182.2L403.0,183.6L401.5,184.0L400.4,185.1L399.3,186.2L399.6,187.6L401.0,187.9L402.8,188.0L404.8,189.5L405.1,191.1L406.6,191.7L408.2,191.6L410.0,191.5L411.5,191.8L412.9,191.4ZM454.4,159.1L454.7,159.3L454.7,159.0L454.4,159.1ZM457.2,174.1L457.1,173.9L456.8,174.1L457.2,174.1ZM454.9,157.5L455.3,157.4L454.8,157.0L454.9,157.5ZM456.5,155.6L456.5,155.3L456.3,155.4L456.5,155.6ZM453.8,159.4L453.8,159.1L453.5,159.1L453.8,159.4ZM455.4,156.2L455.8,156.0L455.5,155.9L455.4,156.2ZM461.8,162.9L461.9,163.0L461.9,162.9L461.8,162.9Z"/>
    <path data-code="henan" d="M379.3,212.9L380.9,212.7L382.7,212.5L384.2,212.4L385.3,213.5L386.8,213.3L388.1,212.4L389.2,213.4L389.0,215.2L389.6,216.7L391.0,217.7L392.5,218.1L394.1,218.7L395.5,218.9L396.6,220.5L398.7,220.9L400.4,221.2L401.8,220.8L403.1,221.9L404.7,220.9L405.4,219.4L407.1,218.4L408.8,218.4L409.4,217.1L409.6,214.7L409.2,212.6L409.0,211.1L407.4,211.6L406.1,212.3L404.6,211.1L403.1,210.6L402.6,208.9L401.0,207.6L399.7,206.8L400.1,205.3L402.4,205.9L403.6,204.8L404.0,203.2L404.2,201.7L406.1,201.2L406.1,199.4L406.2,197.7L407.4,196.6L408.8,197.1L410.2,197.5L410.7,199.1L412.4,199.7L413.9,199.3L415.4,198.3L415.6,196.5L415.3,194.9L413.7,194.6L412.6,193.6L412.0,192.1L410.5,191.5L408.7,191.8L407.2,191.9L405.6,191.6L404.9,190.2L403.8,189.0L402.2,188.0L400.8,187.7L399.1,187.5L399.5,185.9L401.2,184.0L403.0,183.6L404.0,182.3L405.3,180.8L407.3,180.4L408.5,179.5L410.0,178.3L411.1,177.0L409.2,177.8L407.4,178.4L405.6,179.1L404.2,180.2L404.1,178.6L405.3,176.8L403.7,177.2L402.7,176.1L401.2,176.5L400.0,177.6L398.6,176.9L396.9,176.9L395.3,176.1L393.8,175.5L392.1,175.5L390.5,175.0L389.0,174.5L388.4,176.0L388.4,177.5L387.9,179.3L387.5,181.0L386.6,182.5L385.2,183.1L383.7,183.3L382.6,184.2L381.3,185.1L379.8,185.6L378.4,185.1L376.2,185.3L374.6,185.2L373.1,184.9L373.0,186.7L370.7,187.0L369.4,187.8L368.5,189.1L366.8,189.4L365.3,189.6L363.4,190.1L362.2,190.8L360.7,190.9L358.7,191.6L357.3,191.4L357.5,193.0L357.8,194.9L359.5,195.5L359.2,197.0L359.4,198.6L361.0,199.1L362.0,200.7L363.1,201.6L363.3,203.2L363.5,204.8L364.8,205.7L365.7,207.0L366.7,208.4L367.9,209.9L369.8,210.5L371.2,211.3L372.7,212.0L374.0,212.7L375.6,213.2L377.0,212.7L378.6,212.8Z"/>
    <path data-code="hubei" d="M363.5,205.1L361.8,204.7L360.3,205.8L359.1,204.4L357.4,205.1L355.7,205.2L354.0,204.9L352.3,204.4L350.8,204.3L349.1,204.5L350.7,205.6L351.7,206.9L353.0,207.8L354.7,208.4L355.2,209.8L353.9,211.1L352.0,210.8L350.2,210.6L349.2,212.2L349.2,213.7L350.1,215.3L350.1,217.0L349.8,218.9L351.2,219.9L352.7,220.9L354.0,221.7L355.2,222.9L355.6,224.4L355.0,226.0L354.5,227.8L353.2,227.1L351.6,227.3L350.5,228.2L349.4,229.3L347.6,230.8L347.1,229.4L345.6,230.5L344.7,229.2L343.3,230.0L341.9,230.7L340.2,231.0L338.7,231.3L339.6,232.4L340.0,233.9L339.9,235.6L338.3,237.0L339.6,238.3L340.5,236.8L341.4,238.4L342.8,238.7L343.2,240.2L343.5,241.9L344.8,241.2L345.6,242.4L346.5,243.9L347.2,242.6L347.7,241.1L348.7,239.7L350.4,239.0L351.6,237.8L353.1,237.6L354.8,237.5L356.4,238.4L357.9,238.7L359.7,237.6L358.8,236.5L358.4,234.9L359.8,234.7L361.7,234.2L363.4,235.0L365.4,235.1L366.7,235.9L368.3,236.5L369.7,236.5L371.2,236.8L372.6,237.6L373.6,238.7L375.4,239.4L377.2,239.0L378.6,239.4L379.9,238.5L381.0,237.5L381.1,239.1L381.5,240.5L382.9,240.6L384.5,239.3L387.3,236.9L387.0,238.3L388.3,238.9L389.0,240.8L387.9,242.0L388.4,243.9L390.0,244.5L391.2,243.8L392.9,243.0L393.8,241.7L395.5,241.8L396.9,241.7L398.3,241.3L399.8,241.2L400.3,239.8L402.2,240.1L401.9,238.8L403.5,239.1L405.2,238.0L406.5,237.0L407.9,237.4L409.3,238.1L411.0,237.4L410.9,235.7L410.7,233.7L409.3,232.5L409.3,230.5L408.4,229.4L408.9,227.7L410.0,226.5L409.1,224.8L407.4,224.0L405.9,224.0L404.9,222.6L403.1,222.1L403.0,220.6L401.0,220.8L399.7,221.4L397.9,220.9L396.5,219.9L395.1,218.7L393.6,217.9L392.2,218.4L390.5,217.5L389.1,216.4L389.3,214.6L389.2,212.8L386.8,213.3L385.3,213.5L384.2,212.4L382.7,212.5L381.1,212.6L379.4,212.9L377.7,212.5L376.2,212.8L374.5,212.6L373.1,211.8L371.5,211.5L369.8,210.5L368.1,210.3L367.0,209.1L365.9,208.1L365.5,206.7L364.5,205.6ZM345.3,230.0L345.2,229.9L345.2,229.9L345.3,230.0Z"/>
    <path data-code="hunan" d="M372.7,285.8L373.9,284.9L373.7,283.4L374.3,281.6L376.0,281.5L377.8,282.1L379.2,282.5L379.8,283.8L381.4,284.1L382.0,282.4L381.9,280.9L380.6,280.1L382.1,279.9L383.6,278.8L385.2,279.0L386.5,279.7L388.3,280.1L389.8,279.8L391.0,278.2L390.5,276.6L391.6,274.8L391.8,273.0L393.1,272.6L391.5,272.0L391.8,270.5L392.4,269.1L391.3,267.8L390.0,266.4L390.7,264.7L389.5,263.2L390.2,261.4L388.8,260.8L387.6,260.1L387.7,258.6L388.5,257.3L389.1,255.9L390.1,254.5L391.6,254.3L392.4,252.8L393.7,251.5L393.4,250.1L392.2,249.3L392.8,247.3L391.9,246.0L390.8,244.6L389.2,244.1L388.5,242.9L388.3,241.3L388.6,239.7L387.6,238.6L387.3,236.9L385.5,238.3L384.0,239.8L382.7,240.8L381.1,239.2L382.2,237.6L380.6,237.5L379.4,238.9L377.9,239.1L376.0,239.8L374.7,239.1L373.4,238.5L372.1,237.4L370.7,236.4L368.3,236.5L366.8,236.3L365.6,235.3L363.4,235.0L361.7,234.2L360.4,235.1L358.7,234.9L358.4,236.3L359.7,237.6L358.5,238.4L356.9,238.6L355.2,237.8L353.1,237.6L351.6,237.8L351.0,239.1L349.5,239.2L348.4,240.4L347.5,241.5L346.7,242.9L347.2,244.4L346.5,246.2L347.0,247.7L346.2,248.9L346.8,250.8L347.9,252.0L347.2,253.6L347.3,255.9L347.7,257.3L348.5,258.6L347.1,259.6L345.6,259.9L344.7,261.0L343.4,262.2L342.3,263.4L343.7,264.0L345.5,263.0L347.4,262.8L348.9,263.6L348.4,265.2L349.2,266.6L347.6,267.1L348.1,268.6L347.1,270.4L348.4,271.0L349.1,272.5L350.4,273.6L351.5,274.8L351.9,273.3L353.4,271.9L354.3,273.3L356.0,273.6L357.8,272.3L358.9,271.0L360.5,270.9L362.5,271.0L364.0,270.8L365.7,271.1L365.6,272.8L364.9,274.2L366.4,274.6L367.3,275.9L366.0,277.1L365.7,279.2L364.4,280.4L363.1,281.8L362.8,283.5L364.4,282.9L365.7,281.9L367.2,282.4L367.5,284.0L367.4,285.9L369.1,286.3L370.5,285.3L372.1,285.5ZM349.2,266.6L349.2,266.6L349.2,266.6L349.2,266.6Z"/>
    <path data-code="guangdong" d="M387.2,310.0L387.8,308.7L388.4,307.1L388.3,305.1L389.5,306.3L390.4,307.8L391.6,307.2L393.4,306.7L394.9,306.2L395.8,307.6L397.3,307.1L396.8,305.7L397.8,304.7L398.4,306.4L400.0,306.7L401.1,305.2L402.6,304.6L404.1,305.2L406.2,305.8L406.3,304.1L407.9,304.0L409.5,304.3L411.2,304.2L412.4,303.2L414.4,303.0L415.4,301.9L416.8,300.5L418.4,298.5L419.7,297.6L421.4,297.1L420.1,295.8L419.7,294.3L419.2,292.8L419.6,291.2L418.8,289.8L418.3,288.5L417.3,287.3L415.8,286.6L414.4,286.0L413.9,284.5L412.5,285.3L410.8,284.7L409.3,284.0L408.0,285.3L408.3,286.9L406.5,286.9L405.3,285.6L403.7,285.6L401.8,286.5L400.2,286.6L398.7,287.0L397.3,287.4L395.4,288.2L394.2,287.3L392.9,286.3L394.5,285.7L395.1,283.8L396.4,283.1L397.6,282.3L398.3,280.7L397.0,279.6L395.5,279.7L394.1,280.4L392.4,280.4L391.2,279.3L389.8,279.8L388.4,279.9L387.0,279.8L385.4,279.4L384.3,278.4L383.2,279.3L381.7,279.9L382.3,281.4L381.7,283.0L380.7,284.3L379.5,283.3L378.7,282.0L376.8,281.8L375.4,281.8L373.9,282.8L374.1,284.6L372.8,285.5L371.8,286.8L372.6,288.1L373.1,289.6L371.7,290.7L371.8,292.8L370.8,293.9L369.3,294.5L368.9,296.1L367.6,297.3L366.7,298.6L366.5,300.1L366.7,301.7L366.5,303.5L365.2,304.8L363.6,305.0L362.6,306.2L361.0,306.4L360.4,307.8L361.1,309.3L359.8,309.9L358.4,310.6L357.0,310.1L357.1,311.9L355.8,313.1L354.2,313.4L352.9,315.2L351.3,315.7L351.7,317.2L351.5,319.4L350.6,320.9L350.5,322.9L351.1,324.3L351.9,325.6L352.7,327.0L352.8,328.9L354.5,328.7L356.5,328.8L357.9,328.2L358.9,326.6L358.3,325.0L357.4,323.3L355.7,322.9L355.6,321.1L357.4,320.4L358.7,319.6L360.4,318.6L362.1,318.1L363.4,317.4L365.8,316.9L367.3,316.7L368.8,316.5L370.6,315.7L372.3,315.8L372.9,314.3L374.3,314.0L375.8,314.8L377.2,314.1L378.6,314.3L380.0,312.8L381.3,313.5L382.4,312.4L382.8,310.8L383.4,312.2L384.4,313.2L386.1,311.9L387.2,310.6ZM380.6,314.5L379.2,315.1L380.6,314.5ZM377.5,316.0L378.8,315.0L377.5,316.0ZM357.8,319.9L359.2,320.7L357.9,319.8ZM376.6,315.2L376.8,315.4L376.8,315.0L376.6,315.2ZM358.6,320.8L357.0,320.8L355.7,321.7L357.5,321.7L359.0,321.0ZM389.1,312.4L389.2,312.0L388.9,312.1L389.1,312.4ZM388.7,312.7L388.9,312.5L388.7,312.5L388.7,312.7ZM389.7,308.2L389.6,308.0L389.3,308.0L389.7,308.2ZM393.1,312.1L393.5,312.0L393.1,311.9L393.1,312.1ZM392.8,312.2L393.0,312.0L392.5,312.1L392.8,312.2ZM417.4,323.8L418.2,325.1L418.5,323.7ZM382.2,313.5L382.4,313.1L382.0,313.3L382.2,313.5ZM357.5,324.7L357.8,324.7L357.6,324.3L357.5,324.7ZM358.9,328.0L359.3,327.7L359.2,327.5L358.9,328.0ZM408.6,305.1L408.6,305.1L408.6,305.1L408.6,305.1ZM408.6,305.1L408.6,305.1L408.6,305.1L408.6,305.1Z"/>
    <path data-code="guangxi" d="M348.8,273.4L348.0,274.7L347.4,276.0L345.7,276.2L344.2,275.8L344.6,277.3L343.2,278.1L341.7,277.2L340.6,278.6L340.8,280.1L339.3,278.9L337.8,278.3L336.4,279.0L336.2,280.7L334.9,281.4L333.3,282.2L332.4,281.0L330.9,280.8L329.3,280.0L327.9,278.1L326.0,277.9L325.1,279.1L325.6,280.7L324.4,281.6L322.9,281.7L321.6,282.5L320.3,283.0L318.9,283.6L317.4,283.7L317.6,285.6L316.2,286.8L314.7,285.9L313.2,285.5L311.3,285.1L310.0,283.8L308.6,283.3L307.4,284.1L305.7,285.7L304.5,286.6L302.8,286.1L302.1,287.7L303.1,289.1L304.6,288.6L306.4,288.9L307.9,289.3L308.6,290.8L309.1,292.3L311.2,292.7L312.2,291.5L313.6,292.3L315.0,292.5L316.5,292.0L317.2,293.3L317.3,294.8L317.2,296.6L316.0,298.2L314.6,297.4L313.2,298.6L311.9,300.0L312.0,301.8L313.6,302.1L314.9,303.2L316.2,302.5L318.0,302.6L319.5,303.8L321.0,302.9L322.2,303.7L323.6,304.2L322.7,306.5L321.6,307.5L322.3,308.8L322.7,310.5L322.4,312.0L324.1,312.1L326.0,312.8L326.8,314.3L328.4,314.6L329.1,315.9L330.6,316.0L332.1,315.7L333.6,315.3L334.5,316.5L335.9,316.7L337.1,315.8L338.6,316.5L340.4,315.1L341.8,315.6L343.7,315.9L345.2,316.0L344.7,317.5L346.6,317.5L348.2,317.4L349.7,316.9L351.7,317.2L351.3,315.7L352.9,315.2L353.2,313.5L354.6,313.2L356.4,313.0L357.0,311.1L358.4,310.6L360.1,310.3L361.1,309.3L360.4,307.8L361.0,306.4L362.6,306.2L363.9,305.3L366.5,303.5L367.2,302.1L366.8,300.4L366.8,298.8L367.6,297.3L368.9,296.3L369.0,294.9L370.7,294.7L371.7,293.4L371.4,291.8L372.1,290.3L373.1,289.2L372.6,287.8L371.9,286.3L370.8,285.5L369.1,286.0L367.4,286.5L367.3,284.7L367.5,283.1L366.1,282.3L364.4,282.9L363.2,284.1L363.0,282.3L364.2,281.2L364.8,279.8L366.2,278.3L366.0,276.4L367.2,275.2L365.5,275.0L365.3,273.3L365.7,271.7L364.0,270.8L362.6,270.2L361.6,271.3L360.0,270.7L358.8,271.5L357.2,272.9L356.1,274.1L354.6,273.5L354.0,272.1L352.4,273.5L351.9,274.9L350.4,273.6L348.8,273.4Z"/>
    <path data-code="hainan" d="M354.7,330.9L352.7,331.2L351.0,331.0L349.2,331.7L347.6,332.1L345.8,333.1L344.7,334.8L343.6,335.7L342.1,336.9L340.6,338.1L340.5,340.2L340.5,341.9L341.1,343.8L340.9,345.6L343.1,346.3L344.3,347.2L345.9,347.8L347.6,348.2L349.2,348.7L351.1,348.6L351.7,347.0L353.9,346.8L354.8,345.4L356.0,344.4L358.4,344.0L359.1,342.8L359.5,339.3L360.3,337.6L361.6,336.4L363.2,334.9L363.5,333.4L362.8,331.0L361.3,330.8L360.2,329.6L358.6,330.4L356.7,330.1L355.0,330.4ZM384.4,444.8L385.6,443.7L384.4,444.8ZM390.4,449.7L391.9,450.4L394.1,449.6L395.3,448.2L396.4,447.3L395.3,446.4L393.9,447.2L392.2,448.6L390.6,449.4ZM374.6,437.7L374.5,437.5L374.2,437.7L374.6,437.7ZM389.4,452.0L389.7,452.1L389.7,451.9L389.4,452.0ZM348.6,452.2L350.4,450.9L353.1,450.7L351.1,450.0L349.3,451.2ZM414.8,423.0L416.3,423.6L414.8,423.0ZM402.3,442.3L403.7,442.5L402.3,442.3ZM414.5,434.7L414.7,435.1L414.9,434.8L414.5,434.7ZM353.1,447.4L354.5,446.9L353.1,447.4ZM369.6,363.8L369.9,364.1L369.9,363.7L369.6,363.8ZM415.4,429.3L415.5,429.5L415.8,429.5L415.4,429.3ZM418.0,422.3L418.2,422.3L418.4,422.1L418.0,422.3ZM388.2,434.2L388.3,434.5L388.5,434.2L388.2,434.2ZM367.5,440.9L367.8,440.9L367.9,440.7L367.5,440.9ZM403.2,441.1L403.3,441.4L403.6,441.1L403.2,441.1ZM375.8,437.1L376.2,437.2L376.1,436.9L375.8,437.1ZM395.7,373.2L395.7,373.5L396.0,373.3L395.7,373.2ZM400.6,416.5L400.9,416.7L401.0,416.4L400.6,416.5ZM392.3,369.4L392.4,369.6L392.6,369.3L392.3,369.4ZM422.1,420.2L423.5,420.1L422.1,420.2ZM399.4,453.2L399.1,453.7L399.5,453.6L399.4,453.2ZM380.3,437.2L380.6,437.4L380.7,437.3L380.3,437.2ZM374.5,438.0L374.7,438.0L374.8,437.8L374.5,438.0ZM381.4,442.0L381.8,441.9L381.5,441.8L381.4,442.0ZM387.6,455.9L387.4,456.3L387.8,456.1L387.6,455.9ZM374.8,437.6L375.2,437.8L375.2,437.5L374.8,437.6ZM380.9,447.4L381.3,447.6L381.3,447.2L380.9,447.4ZM387.6,424.5L387.8,424.7L387.9,424.5L387.6,424.5ZM390.0,374.4L390.4,374.5L390.3,374.3L390.0,374.4ZM375.8,468.7L376.2,468.8L376.1,468.5L375.8,468.7ZM377.0,467.6L377.2,467.6L377.2,467.2L377.0,467.6ZM384.0,462.2L384.1,462.4L384.2,462.0L384.0,462.2ZM411.6,430.8L412.0,431.0L411.9,430.7L411.6,430.8ZM390.8,371.0L391.1,371.3L391.1,370.9L390.8,371.0ZM400.1,369.1L399.8,369.1L399.9,369.4L400.1,369.1ZM378.6,365.7L378.9,365.6L378.7,365.3L378.6,365.7ZM407.9,422.4L408.1,422.7L408.3,422.4L407.9,422.4ZM421.6,419.8L421.4,419.7L421.5,420.1L421.6,419.8ZM378.8,366.2L379.1,366.2L378.9,366.0L378.8,366.2ZM408.1,421.6L408.3,422.0L408.3,421.8L408.1,421.6ZM397.1,372.8L396.8,373.0L397.1,373.1L397.1,372.8ZM377.7,465.3L377.7,465.6L377.9,465.4L377.7,465.3Z"/>
    <path data-code="chongqing" d="M319.5,249.6L320.7,248.3L320.3,246.8L321.6,248.0L321.4,249.6L322.7,250.3L323.1,248.8L324.4,247.9L325.3,246.4L326.8,246.1L327.8,247.3L329.0,246.5L328.9,244.9L329.2,243.3L330.8,242.9L332.0,243.7L333.2,244.7L335.1,244.6L336.7,244.3L337.9,245.4L338.5,246.9L339.0,248.5L340.8,248.6L340.4,250.2L341.1,251.4L341.4,250.0L342.0,251.7L343.3,252.5L345.1,252.8L345.7,251.2L346.8,249.9L346.1,248.5L347.1,247.4L346.7,245.5L346.5,243.9L345.3,243.0L344.8,241.2L343.5,241.9L343.0,240.5L343.2,239.0L341.4,238.4L341.1,236.8L339.8,237.7L338.3,237.0L339.7,236.6L339.9,235.0L340.3,233.0L339.2,232.0L339.7,230.7L340.9,229.9L342.3,230.5L344.0,229.5L345.6,230.5L347.1,229.4L347.6,230.8L349.3,229.1L350.5,228.2L351.6,227.3L353.2,227.1L354.5,227.8L355.1,226.3L355.1,224.8L355.1,223.2L354.2,222.0L352.7,220.9L351.1,220.6L351.2,219.2L349.4,218.9L347.9,219.1L346.1,218.1L345.1,217.0L343.3,216.5L341.9,215.6L340.4,214.7L338.6,214.5L338.3,216.0L338.1,217.7L339.9,218.6L339.0,219.8L338.1,221.0L336.7,221.2L336.6,222.7L335.2,223.5L335.1,225.3L334.4,226.7L333.5,227.9L332.0,227.1L330.3,227.3L329.8,228.7L329.5,230.2L328.6,231.8L327.5,233.4L326.4,234.6L324.9,235.1L323.4,235.3L322.4,234.3L321.8,232.7L320.2,232.5L318.9,233.2L317.6,232.6L316.3,231.9L314.6,231.5L313.3,232.4L312.7,233.7L313.1,235.1L313.6,236.5L312.1,237.2L311.1,238.6L309.7,239.4L309.7,240.8L310.6,242.0L312.5,242.3L313.5,243.7L314.1,245.4L315.7,245.4L317.4,246.0L318.5,247.1L319.3,249.0Z"/>
    <path data-code="sichuan" d="M270.5,262.3L270.2,263.9L271.5,265.1L272.3,266.3L273.8,266.4L273.3,267.9L273.9,269.3L274.9,270.3L275.9,271.6L276.8,272.9L278.5,272.8L280.0,272.3L281.6,271.4L283.5,270.5L284.6,271.6L286.2,270.8L287.8,270.2L288.3,268.8L288.0,267.4L287.5,265.7L286.8,264.1L286.9,262.0L287.2,260.3L289.1,260.1L290.0,258.7L291.1,257.7L292.1,256.7L293.0,254.8L292.2,253.4L293.8,252.1L295.6,251.9L295.6,250.4L295.6,248.8L297.7,248.6L299.4,248.5L301.2,248.6L299.6,249.5L299.8,251.3L301.1,252.0L301.4,253.5L300.0,254.1L301.4,255.3L302.6,256.1L304.2,255.5L305.8,255.2L306.6,254.0L308.2,253.9L309.3,255.2L309.4,256.8L311.4,256.8L312.5,257.8L313.8,257.3L315.3,257.0L317.2,256.7L318.9,256.4L318.7,254.5L318.0,253.3L315.8,253.6L315.0,252.3L313.5,251.7L312.7,250.5L313.1,249.0L314.9,248.9L315.7,247.3L317.0,248.5L318.4,249.4L318.9,247.9L318.0,245.9L316.5,245.9L314.6,245.7L313.6,244.7L313.3,242.9L311.9,242.4L310.5,241.7L309.5,239.9L310.6,238.4L312.0,237.9L313.3,237.0L313.7,235.3L312.1,234.3L312.5,232.8L313.8,231.8L315.5,231.9L317.3,232.6L318.2,233.7L319.8,233.1L321.1,232.6L322.4,234.0L323.4,235.3L324.9,235.1L326.4,234.6L327.5,233.4L328.6,231.8L329.3,230.5L330.3,229.3L330.1,227.7L332.0,227.1L333.5,227.9L334.8,226.8L335.4,225.4L335.7,223.9L336.6,222.7L336.7,221.2L338.1,221.0L339.0,219.8L339.9,218.6L338.5,218.0L337.3,216.6L338.4,215.6L339.4,214.6L337.8,214.1L336.3,214.0L334.7,214.9L333.1,214.0L331.8,212.5L330.4,212.7L329.5,211.3L328.1,211.9L326.6,211.7L326.4,210.1L324.6,209.6L322.9,209.2L321.5,209.7L320.0,210.4L318.5,209.9L317.1,209.4L316.4,208.0L315.0,208.3L313.4,209.1L311.9,209.4L311.3,208.0L310.1,209.5L308.7,209.9L306.9,210.1L305.5,210.6L303.7,209.9L302.1,209.4L300.6,208.5L300.8,206.8L300.5,205.2L300.0,203.8L299.2,202.5L298.8,201.0L297.6,200.2L295.9,200.2L294.3,200.1L292.7,200.3L291.1,199.6L289.3,199.0L288.9,197.6L288.9,196.1L287.5,195.2L285.9,194.6L284.6,195.3L283.2,196.4L282.0,197.5L280.5,197.5L280.6,199.2L281.6,201.0L282.7,202.0L281.3,202.9L280.4,204.4L278.9,204.9L277.3,205.5L276.2,204.4L277.3,203.1L277.5,201.6L276.2,202.4L275.1,203.7L275.1,205.2L273.5,204.6L271.7,204.2L270.1,204.6L270.3,206.2L270.6,207.8L271.0,209.4L269.7,209.8L268.3,210.6L266.8,210.2L265.6,211.3L264.4,210.3L263.1,209.6L261.7,210.1L260.6,208.6L259.1,207.2L257.7,207.3L257.3,209.0L255.6,208.8L254.4,208.1L252.6,207.9L251.9,206.4L250.3,205.8L248.8,205.3L247.8,204.1L247.7,202.2L246.5,200.9L245.8,199.6L244.5,198.5L244.7,196.9L243.1,196.4L241.6,196.0L240.3,195.4L238.8,195.3L237.9,196.8L236.2,198.1L234.8,198.7L235.4,200.2L236.1,201.8L237.6,202.6L237.0,204.2L235.9,205.1L236.0,206.6L234.5,207.7L235.3,209.5L237.0,210.4L238.2,211.3L239.6,211.7L241.4,212.3L242.7,213.0L243.5,215.2L244.8,216.2L244.7,217.7L245.6,219.0L246.5,220.2L248.6,221.8L248.3,223.2L246.7,222.6L246.4,224.1L247.4,225.1L248.2,226.4L249.2,228.0L249.4,229.6L249.8,231.2L250.0,232.8L250.5,234.7L250.7,236.1L250.0,238.5L250.5,240.1L250.8,242.0L251.1,243.5L251.3,245.5L251.2,247.3L251.8,249.0L251.7,250.5L252.8,251.9L254.2,250.8L253.9,249.4L255.2,248.6L255.8,247.1L257.2,247.9L258.8,248.9L260.2,250.5L260.9,251.8L259.8,252.8L260.4,254.3L261.5,255.8L262.5,257.2L263.7,255.9L265.3,255.9L266.6,256.8L267.3,258.3L268.0,259.8L269.1,261.0L270.1,262.2Z"/>
    <path data-code="guizhou" d="M346.8,249.9L345.7,251.2L345.2,252.7L343.6,252.8L342.1,252.6L342.2,251.0L341.0,250.0L340.6,251.5L340.3,249.5L339.0,248.5L338.5,246.9L337.9,245.4L336.7,244.3L335.1,244.6L333.6,245.4L333.1,243.7L331.6,243.5L330.0,243.4L329.2,244.6L329.0,246.5L327.8,247.3L326.8,246.1L325.3,246.4L324.0,247.1L324.2,248.6L322.9,249.6L321.3,250.0L322.0,248.6L321.3,247.4L320.7,248.9L319.6,250.0L317.8,249.0L316.3,247.9L314.9,248.9L313.3,249.0L312.4,250.4L313.1,251.9L314.6,252.1L315.8,253.6L317.4,253.0L318.5,254.0L318.9,255.6L317.8,256.9L316.2,257.0L314.8,257.2L313.4,257.6L311.9,257.3L309.9,257.0L309.0,258.6L308.3,260.6L306.7,260.5L305.4,261.4L302.9,261.2L301.9,260.2L300.1,260.3L298.8,261.6L297.3,260.5L296.0,261.0L294.8,262.2L293.6,263.2L294.9,264.5L294.4,266.1L294.8,267.8L295.9,268.8L297.8,268.8L298.7,267.5L300.1,267.9L301.6,267.6L302.6,268.7L303.4,269.9L302.3,271.3L301.9,273.1L301.3,274.4L300.9,276.0L300.3,277.6L301.3,278.8L303.0,279.8L304.1,280.7L303.7,282.1L303.4,283.6L302.3,285.1L303.1,286.5L305.1,286.4L306.9,285.3L307.5,284.0L309.0,283.6L310.6,284.0L312.0,285.2L313.8,286.0L315.5,285.9L317.1,286.0L318.0,284.7L318.9,283.6L320.3,283.0L321.6,282.5L322.9,281.7L324.4,281.6L325.6,280.7L325.1,279.1L326.0,277.9L327.6,277.5L328.6,278.9L329.5,280.5L331.1,280.9L332.6,281.1L334.2,281.8L335.6,281.4L336.2,279.6L337.5,278.7L339.3,278.9L340.4,280.1L340.6,278.6L341.3,277.3L342.5,278.3L344.5,278.4L345.0,276.7L343.3,276.8L344.7,275.7L346.2,275.8L347.7,275.3L348.7,273.7L348.4,271.4L347.0,270.9L347.9,269.4L347.6,267.4L348.9,266.5L349.5,264.7L348.5,263.5L346.8,262.9L345.2,263.5L343.7,263.7L342.3,263.4L343.6,262.6L344.8,261.4L345.6,260.2L347.1,260.1L348.1,258.9L348.2,257.2L347.3,255.9L347.8,254.3L347.5,252.8L346.8,251.4L346.8,249.9Z"/>
    <path data-code="yunnan" d="M309.5,257.4L308.8,255.6L308.4,254.1L306.6,254.0L305.8,255.2L304.4,255.7L302.9,256.0L301.4,255.3L300.1,254.2L301.4,253.5L301.4,252.0L299.8,251.3L299.7,249.8L301.1,248.9L299.6,248.3L298.1,248.8L296.3,248.6L295.1,249.6L295.9,250.9L295.0,252.4L293.2,252.4L291.8,254.2L292.5,255.5L291.5,257.4L290.5,258.8L289.1,259.9L287.7,260.6L286.7,261.7L286.6,263.9L287.3,265.7L287.8,267.2L288.3,268.8L287.8,270.2L286.2,270.8L285.0,271.7L283.7,270.3L282.0,270.9L280.7,271.7L279.4,273.1L277.9,272.9L276.4,272.6L275.4,271.4L274.9,270.0L273.7,268.9L273.5,267.3L272.3,266.3L271.5,265.1L270.2,263.9L270.5,262.5L269.2,261.6L268.5,260.1L267.6,258.2L266.6,256.8L265.9,255.3L264.7,256.4L262.8,256.9L261.5,255.8L260.7,254.4L259.7,253.2L261.3,252.2L260.1,251.1L259.4,249.5L258.3,248.5L256.9,247.3L255.3,247.8L254.5,249.0L254.2,250.8L253.6,252.9L252.3,251.6L251.9,249.9L251.5,248.5L251.1,246.5L251.2,244.3L250.5,243.0L250.2,244.7L249.3,246.1L248.1,245.0L246.6,245.4L247.1,247.5L246.7,249.3L247.7,251.3L246.8,252.7L245.3,253.2L244.2,252.2L243.5,250.9L242.7,252.6L241.9,254.7L242.7,256.4L243.4,257.9L243.9,259.3L244.7,257.9L246.2,258.5L247.3,259.7L247.6,261.4L247.4,263.4L247.8,265.3L247.7,267.1L247.8,269.0L247.1,270.8L247.4,272.2L246.5,274.0L247.1,275.5L245.7,275.3L245.0,276.8L243.8,277.9L242.3,277.4L242.2,278.9L241.3,280.3L240.1,281.2L238.8,281.8L238.0,283.5L238.8,284.8L237.4,285.3L236.6,287.1L236.3,288.6L237.7,289.0L238.5,290.4L237.9,292.0L236.7,293.0L237.4,294.4L238.8,293.3L240.5,292.6L241.8,292.0L243.9,291.9L245.8,291.6L247.5,291.6L248.9,291.4L248.0,292.7L247.3,294.5L248.4,295.5L248.3,297.3L249.3,298.4L249.4,299.9L250.6,300.9L252.5,301.7L254.3,301.7L255.1,302.8L253.9,304.1L253.7,306.5L252.9,308.1L252.3,309.6L252.9,311.0L254.7,310.8L256.2,311.0L258.3,311.7L259.4,312.8L259.4,314.8L261.1,315.2L260.8,316.7L262.3,317.0L264.1,317.2L266.0,316.7L267.1,315.7L268.3,314.9L269.8,314.2L270.5,315.9L270.8,317.5L271.3,318.9L273.1,319.4L274.6,319.3L276.1,320.2L276.0,318.7L275.9,317.0L276.7,315.7L276.2,313.6L274.6,312.3L274.3,310.9L274.3,309.4L275.0,308.2L276.2,307.2L277.4,308.3L278.8,307.6L280.9,308.0L281.7,306.6L282.5,305.3L284.1,305.0L285.9,306.1L287.1,307.4L288.5,307.7L289.3,306.4L290.4,305.5L291.9,304.8L292.6,306.3L293.8,304.4L295.0,305.4L296.0,306.6L297.6,305.5L298.3,304.3L299.8,304.1L300.7,305.4L302.2,304.2L304.1,304.1L305.3,302.7L304.8,301.4L306.1,301.0L307.5,299.9L309.1,299.4L310.5,299.7L311.7,300.7L312.7,299.1L313.7,298.0L315.2,297.7L316.7,297.7L317.4,296.1L317.8,294.5L316.9,292.9L316.0,291.7L314.7,292.3L313.2,292.2L311.6,291.6L310.4,292.4L308.5,291.9L308.2,290.1L307.0,288.6L305.1,288.6L304.0,289.6L302.6,288.8L301.8,286.6L302.3,285.1L303.4,283.6L303.7,282.1L304.8,281.2L303.2,280.5L302.4,278.3L300.8,277.6L300.3,276.0L301.3,275.0L301.5,272.9L302.4,271.6L303.4,270.5L302.8,268.7L301.5,268.0L299.8,267.7L298.3,267.6L297.3,268.8L295.5,268.7L294.9,267.1L294.6,265.6L294.7,264.0L294.8,262.2L296.0,261.0L297.3,260.1L298.8,261.6L300.0,260.6L301.6,260.2L302.9,261.2L304.4,261.1L306.7,260.5L308.3,260.4L308.8,258.9L309.5,257.4Z"/>
    <path data-code="xizang" d="M162.6,177.2L160.6,176.6L159.1,175.8L157.1,175.6L155.6,175.0L154.1,174.8L152.4,174.3L151.0,173.4L149.2,173.6L147.8,174.0L146.4,173.9L145.0,174.4L142.9,174.6L141.4,174.1L139.9,174.6L138.5,175.2L137.1,175.1L135.6,175.3L133.3,175.9L131.4,176.1L130.0,176.7L129.3,178.0L128.5,179.2L127.2,180.2L124.8,180.4L123.6,181.5L121.8,180.9L119.6,180.5L118.2,180.6L116.4,181.4L114.8,181.9L113.1,182.4L112.0,183.7L110.4,184.2L108.9,183.6L106.9,184.2L105.3,184.4L103.7,184.0L102.1,183.8L100.6,183.8L99.4,183.0L99.0,181.5L97.5,181.0L95.9,181.0L94.4,180.8L93.3,181.8L91.8,182.7L90.3,183.3L89.9,184.7L88.2,185.0L85.4,185.4L84.2,184.4L82.7,184.6L81.1,183.8L79.6,184.5L77.7,184.4L76.2,183.7L74.7,183.9L74.6,185.6L72.3,187.0L71.5,188.6L70.2,190.2L69.7,191.9L68.4,192.6L66.9,192.6L65.2,193.1L63.5,193.1L61.9,193.4L61.4,195.0L60.2,196.0L58.6,196.4L59.3,198.0L59.7,199.7L59.3,201.5L60.4,202.7L62.0,203.7L62.8,204.8L63.3,206.6L64.0,208.2L64.3,209.8L64.1,211.4L62.9,212.3L61.5,213.1L60.0,212.1L59.7,210.5L58.3,210.3L56.4,210.9L56.7,212.7L56.4,214.3L58.1,215.8L59.5,216.8L58.5,218.1L59.5,219.5L59.2,221.3L59.8,223.0L61.1,223.8L61.9,225.5L63.5,225.7L64.9,226.2L66.5,225.6L68.0,226.3L69.6,227.3L70.8,228.4L71.6,229.7L73.2,229.9L74.6,230.5L75.9,230.8L77.7,231.5L78.9,232.4L80.6,232.9L81.4,234.5L82.7,235.4L83.1,234.0L84.3,233.2L84.4,231.6L85.8,231.9L87.4,231.6L88.8,231.9L90.2,232.2L91.4,233.5L92.3,234.8L93.9,235.3L95.3,235.9L96.6,236.9L97.7,238.2L99.1,238.7L100.6,239.1L102.0,240.2L103.4,241.0L104.1,242.3L105.6,243.4L107.0,242.6L108.4,242.0L110.0,242.3L110.5,243.7L111.0,245.5L112.7,246.4L114.1,247.5L115.4,248.2L116.9,249.2L118.8,248.1L120.0,249.0L119.5,251.0L120.8,251.9L122.6,251.4L123.9,252.2L125.1,251.0L125.7,252.7L126.8,254.1L127.7,255.5L128.5,253.7L129.9,254.8L131.4,255.3L132.7,254.2L134.3,253.6L135.5,254.5L137.4,255.1L138.7,256.3L140.5,256.3L142.6,255.9L144.0,256.5L144.9,255.3L146.4,255.7L147.8,255.8L149.9,254.7L151.2,254.2L152.6,253.5L154.2,254.4L154.9,256.1L154.5,257.7L154.0,259.2L154.7,260.5L155.8,262.2L157.4,261.1L156.8,259.7L157.2,258.1L158.2,256.5L159.5,255.8L160.3,254.3L161.6,253.0L163.3,252.7L165.1,252.8L166.9,252.8L168.8,253.7L170.7,254.2L172.3,254.1L173.8,255.1L175.0,256.0L176.3,254.9L177.7,254.0L179.1,254.6L180.5,255.6L180.6,257.5L180.3,259.0L181.5,259.7L183.7,259.7L185.4,261.5L184.4,263.1L185.4,264.5L186.9,265.2L188.9,264.9L190.3,264.6L191.7,265.2L194.1,265.3L195.8,265.1L198.9,264.8L200.6,264.0L201.6,262.6L202.7,261.2L204.4,259.8L205.6,258.6L207.2,258.6L209.2,257.9L210.9,257.2L212.6,256.2L215.1,255.2L215.9,253.5L217.4,252.8L218.8,252.2L220.3,251.8L221.7,252.7L223.7,252.6L225.3,253.5L226.9,253.9L228.4,255.1L229.9,255.8L231.3,256.4L232.8,256.4L234.1,255.4L234.8,254.0L234.6,252.3L236.2,251.5L236.2,249.9L237.7,249.6L238.5,251.0L240.9,252.2L242.0,253.2L243.2,252.3L244.4,253.5L246.0,252.8L247.4,252.4L247.2,250.5L246.3,248.2L246.8,246.8L246.9,245.2L248.4,245.8L249.3,246.9L249.4,245.2L249.8,243.8L251.2,242.9L250.7,241.0L250.2,239.2L250.3,237.4L250.6,235.9L250.0,234.0L249.8,232.3L249.5,230.5L249.2,228.8L248.7,227.3L248.3,225.9L247.4,224.8L246.4,223.4L248.0,223.5L249.0,222.3L247.4,221.0L245.9,219.6L245.0,218.2L244.8,216.2L243.5,215.2L242.9,213.8L241.9,212.5L240.1,211.7L238.2,211.3L236.4,211.2L234.8,211.1L235.3,213.2L233.8,214.6L232.9,216.0L231.3,215.7L230.0,216.4L229.0,217.7L229.8,219.0L228.1,219.1L226.3,218.5L225.5,217.1L223.9,217.2L224.0,218.7L223.8,220.2L222.5,219.0L220.9,218.1L220.2,219.4L218.4,218.4L217.0,218.3L215.9,217.0L216.7,215.7L215.4,214.9L214.7,213.6L213.2,213.6L214.9,213.0L213.2,212.6L211.6,212.3L210.4,211.3L209.0,210.1L207.3,210.6L205.8,211.3L204.3,212.2L202.8,211.9L201.3,211.1L199.7,210.9L198.5,211.8L196.8,210.9L195.6,210.1L193.8,209.6L192.3,209.6L190.6,209.0L188.7,209.2L187.1,209.1L186.1,208.0L184.5,208.1L182.8,207.7L181.2,206.9L179.8,205.8L178.3,205.8L176.5,205.7L175.1,205.8L173.7,205.6L172.0,205.5L170.7,204.6L169.2,204.3L167.7,202.7L166.2,202.2L165.2,200.9L164.5,199.7L163.4,198.5L162.4,197.3L163.1,196.0L163.8,194.7L163.7,193.2L163.3,191.7L162.8,190.2L164.1,189.4L163.0,188.5L161.4,188.6L161.5,187.1L160.4,185.6L161.5,183.9L162.9,183.1L162.8,181.4L163.2,180.0L161.8,179.4L160.0,178.8L161.6,177.7Z"/>
    <path data-code="shaanxi" d="M357.3,191.4L355.8,190.6L355.9,188.8L356.7,187.6L357.1,185.7L357.9,184.5L358.7,182.7L359.1,180.9L358.9,179.2L358.3,177.7L358.0,175.9L358.3,174.3L358.3,172.7L357.4,171.6L357.7,169.9L357.3,168.5L358.7,167.4L359.8,166.0L359.7,164.3L360.9,163.3L360.3,161.7L359.3,159.7L358.4,158.0L359.1,156.1L360.7,155.4L361.9,154.6L362.0,152.9L362.8,151.7L363.2,150.0L364.4,148.7L365.2,147.0L364.3,145.8L364.5,144.3L362.7,144.4L361.1,145.6L359.6,146.8L358.6,145.7L357.3,146.4L356.1,145.5L354.7,147.0L353.3,147.3L351.7,148.6L350.5,149.5L349.4,151.2L348.1,152.0L346.9,153.0L345.5,154.3L344.3,155.5L343.7,156.9L344.9,158.0L344.1,159.3L342.7,158.4L342.3,160.1L342.3,161.8L340.8,162.2L338.8,162.3L337.2,162.1L335.4,162.2L334.7,160.9L332.3,160.4L330.8,161.1L329.4,161.9L328.7,163.5L327.9,165.3L328.6,166.9L328.2,168.4L329.9,169.4L331.5,170.2L333.6,170.7L334.9,171.5L336.4,172.7L338.1,172.7L339.2,174.0L340.7,173.9L340.9,175.6L341.3,177.5L340.2,178.8L339.9,180.5L340.7,182.3L340.6,184.2L338.3,184.9L336.5,184.7L334.4,185.3L332.5,184.6L332.3,186.5L333.4,187.4L331.8,188.1L330.4,188.5L328.9,188.4L327.2,188.6L326.2,187.4L324.5,186.7L322.7,186.7L321.1,186.8L320.7,188.2L321.4,189.8L320.2,190.7L319.0,191.6L320.9,192.3L322.0,193.4L320.7,194.9L320.8,196.6L319.9,198.1L320.6,199.5L321.4,200.7L320.3,201.7L318.9,201.0L317.0,201.3L315.5,201.3L314.4,202.4L313.7,204.0L315.2,204.5L315.2,206.1L313.5,207.7L311.9,207.6L311.9,209.4L313.4,209.1L315.0,208.3L316.4,208.0L317.1,209.4L318.5,209.9L320.0,210.4L321.5,209.7L322.9,209.2L324.5,209.4L326.1,209.5L326.2,211.1L327.4,212.2L328.8,211.5L330.0,212.3L331.5,212.4L333.1,214.0L334.7,214.9L336.2,214.2L337.8,214.1L339.3,213.7L340.4,214.7L341.8,215.3L343.3,216.5L345.1,217.0L346.1,218.1L347.9,219.1L349.4,218.9L350.0,217.4L349.8,215.9L350.0,214.4L349.1,213.0L349.7,211.5L351.1,210.5L352.8,210.6L354.5,210.8L355.2,209.0L353.6,207.8L351.7,207.9L351.8,206.1L349.7,205.7L350.1,204.1L351.9,204.5L353.4,204.8L355.2,204.8L356.9,205.2L358.8,204.3L360.3,205.8L361.5,204.8L363.0,204.3L363.1,202.6L362.8,200.9L361.4,200.2L360.4,198.8L359.5,196.8L358.9,195.3L357.7,194.4L357.1,192.2Z"/>
    <path data-code="gansu" d="M320.8,180.6L320.5,182.1L320.8,183.6L319.9,185.0L318.3,184.2L316.8,183.6L315.0,183.7L316.5,182.9L315.1,182.4L313.7,181.5L312.2,180.8L310.7,180.1L309.7,178.6L310.4,177.3L311.1,176.0L310.4,174.5L309.6,172.9L308.7,171.7L309.8,170.7L308.9,169.5L307.8,168.5L306.2,168.1L305.3,166.8L303.9,166.5L303.4,165.0L302.1,164.3L300.6,164.5L298.9,164.6L296.6,163.0L294.2,161.0L291.6,160.2L291.2,158.6L292.8,157.4L292.1,155.5L295.9,152.7L297.3,150.7L298.8,149.9L298.8,147.8L297.6,146.5L296.8,145.0L294.6,145.2L291.8,146.0L290.2,146.8L287.8,148.4L284.2,147.7L282.6,146.9L281.0,147.5L278.8,148.0L277.4,148.3L278.8,150.3L277.2,151.9L275.3,152.3L272.8,151.6L271.2,150.7L271.1,149.1L268.6,149.9L267.4,149.1L267.5,147.4L267.4,145.5L265.2,145.6L263.7,144.7L262.4,143.9L260.7,142.6L259.1,142.0L257.8,141.1L256.4,140.8L254.5,141.0L256.8,140.0L258.8,139.2L259.6,137.9L261.1,137.1L261.1,134.6L261.8,132.9L260.5,131.4L256.4,130.8L251.7,131.6L251.3,132.9L250.0,132.3L248.1,133.0L246.1,132.6L243.9,134.3L243.8,131.0L242.4,130.3L240.4,129.3L237.2,126.0L239.2,123.9L237.4,120.8L236.0,118.3L234.8,116.3L232.9,113.0L231.0,113.4L228.8,113.4L225.5,113.7L223.4,114.7L222.1,115.4L222.2,117.3L223.5,118.6L223.2,120.1L221.8,121.5L220.5,122.1L218.6,122.3L216.6,123.3L215.3,124.8L214.3,123.6L212.5,123.3L211.1,123.8L210.1,125.1L208.0,125.4L204.8,127.6L203.1,129.1L202.2,130.4L201.3,132.2L198.4,133.6L192.9,134.3L192.9,136.0L191.7,138.3L191.2,141.0L190.7,143.1L190.2,144.4L189.1,145.8L187.7,146.9L187.6,148.4L189.3,148.3L191.4,148.0L193.0,147.7L194.7,147.6L195.5,148.9L196.2,150.3L197.9,150.2L200.5,150.1L201.9,150.6L202.6,152.1L205.7,151.6L207.8,154.7L209.4,155.2L211.1,155.1L212.9,154.9L214.4,155.8L216.3,156.0L217.9,155.6L219.7,155.5L221.2,156.4L222.5,157.3L223.9,157.5L225.4,156.3L228.1,156.7L228.4,154.9L229.5,153.3L230.9,153.6L231.4,152.2L231.1,150.6L230.9,148.9L230.9,147.4L232.6,147.4L234.2,147.8L235.6,148.2L237.7,149.2L239.1,150.0L240.8,150.7L242.3,150.9L243.3,149.7L244.8,149.4L246.2,150.0L247.3,148.9L249.0,149.0L250.6,149.6L251.4,150.8L252.8,151.6L254.0,152.5L255.1,153.7L256.3,154.6L257.9,155.4L259.5,155.9L261.2,156.8L260.4,155.0L261.8,154.7L263.3,156.1L264.7,156.5L266.3,156.5L267.6,157.5L268.2,158.9L269.7,159.5L270.8,160.4L272.3,160.9L274.1,160.5L276.4,161.8L277.8,161.5L279.3,162.9L280.2,164.5L281.8,165.3L283.0,166.3L284.4,167.5L283.0,167.7L283.3,169.2L285.1,170.7L284.8,172.1L285.8,173.3L286.3,174.7L288.0,175.6L287.2,177.0L287.2,178.8L285.8,179.4L285.0,180.9L286.0,182.3L283.7,182.4L282.5,183.3L281.1,184.1L281.8,185.4L281.1,186.9L279.8,187.5L279.0,188.7L277.6,188.8L277.6,190.4L278.1,191.9L279.7,192.4L280.8,193.8L279.0,194.4L278.0,195.6L276.4,195.9L274.8,195.5L272.9,195.0L271.5,194.5L269.9,194.0L268.5,193.5L267.0,194.7L267.5,196.3L268.6,197.7L270.4,198.7L270.6,200.2L272.6,200.6L274.4,200.3L274.8,201.9L276.2,201.6L277.8,202.5L276.2,204.2L276.7,205.6L278.3,204.8L279.5,204.0L280.8,202.8L282.6,202.4L281.6,201.0L281.4,199.5L279.6,197.5L281.1,197.4L282.5,196.4L284.2,196.2L285.2,194.9L286.9,194.2L287.8,195.4L289.5,196.4L289.0,197.8L289.9,199.1L291.9,199.5L293.4,199.9L295.1,200.4L297.0,200.3L298.8,201.0L299.2,202.5L300.7,203.5L300.5,205.2L301.2,206.6L299.9,207.3L301.5,209.2L303.2,210.0L304.7,210.2L306.9,210.1L308.3,210.4L309.9,209.8L310.3,208.2L311.9,207.6L313.5,207.7L315.2,206.8L315.3,205.3L314.1,204.3L313.3,203.1L314.5,202.1L315.8,200.9L317.8,201.5L319.3,201.1L321.1,201.8L321.1,200.1L320.5,198.4L320.8,196.6L321.3,195.0L322.7,194.3L321.8,192.8L320.3,192.1L320.3,190.4L321.2,189.3L320.6,187.8L321.8,186.9L323.9,186.9L325.3,187.0L326.6,188.1L328.1,188.3L329.7,188.4L331.3,188.0L333.4,187.8L332.3,186.5L332.5,184.6L334.5,185.1L336.5,184.7L338.1,184.7L340.0,184.7L340.6,182.8L339.7,180.9L339.6,179.3L341.0,178.5L341.6,176.7L340.9,174.6L339.7,173.5L338.3,173.1L336.8,172.5L335.4,172.4L334.3,171.4L332.7,170.5L331.0,170.0L328.9,169.4L328.1,168.0L326.7,167.2L324.5,167.0L323.1,167.5L322.1,168.8L321.9,170.8L320.6,171.5L319.7,172.7L320.9,173.6L320.7,175.0L322.1,175.6L323.6,176.0L324.7,176.9L324.5,178.6L324.5,180.3L323.1,180.7L321.6,180.7Z"/>
    <path data-code="qinghai" d="M286.2,174.6L285.4,173.0L284.3,171.8L284.4,169.9L283.1,168.9L283.8,167.5L283.0,166.3L281.8,165.3L280.2,164.5L279.3,162.9L278.3,161.5L277.0,162.1L275.1,161.5L273.3,160.2L271.5,160.5L270.0,159.7L268.6,158.8L268.4,157.4L266.6,156.6L265.1,156.6L263.6,156.3L262.4,155.2L261.1,154.5L259.5,154.4L260.8,155.7L259.1,155.8L257.2,155.0L255.6,154.1L254.3,153.1L252.8,151.6L251.4,150.8L250.6,149.6L249.2,149.2L247.7,148.5L246.5,149.6L245.0,149.8L243.7,149.0L243.0,150.5L241.5,151.4L239.5,150.3L237.9,149.7L236.0,148.6L234.5,147.7L232.6,147.4L230.9,147.4L230.9,148.9L231.1,150.6L231.4,152.2L230.9,153.6L229.3,153.1L228.1,154.3L227.9,156.0L226.2,156.3L224.7,157.2L222.9,157.1L221.3,156.6L219.7,155.5L218.2,155.7L216.7,156.1L214.9,156.0L213.6,154.9L211.3,154.9L209.4,155.2L208.0,154.8L206.5,151.6L202.8,152.0L201.1,151.7L200.5,150.1L197.9,150.2L196.2,150.3L195.5,148.9L194.7,147.6L193.0,147.7L191.4,148.0L189.3,148.3L188.1,149.0L186.7,149.3L185.2,149.7L183.1,150.3L181.3,150.6L179.5,151.1L177.6,151.8L174.7,152.3L172.2,152.6L170.6,153.2L169.4,154.2L167.7,154.2L166.4,154.9L168.0,156.6L170.4,155.9L170.2,161.5L172.7,162.3L173.9,163.5L175.5,163.9L176.0,165.4L177.4,166.9L177.6,168.4L176.0,168.4L174.6,169.3L172.5,170.1L172.0,171.7L173.2,172.7L174.9,172.9L175.0,175.0L175.6,176.5L174.0,177.8L172.7,177.2L171.1,176.8L169.3,176.8L167.6,176.5L165.9,175.6L164.8,176.7L163.2,177.3L161.6,177.7L159.9,177.6L160.5,179.0L162.1,179.5L163.0,181.3L162.7,182.8L161.5,183.9L160.5,185.2L161.4,186.5L161.2,188.2L163.0,188.5L164.1,189.4L162.8,190.2L163.3,191.7L163.7,193.2L163.8,194.7L163.1,196.0L162.4,197.3L163.4,198.5L164.8,199.1L165.2,200.9L166.2,202.2L167.7,202.7L168.8,204.1L170.7,204.6L172.0,205.5L173.7,205.6L175.1,205.8L176.5,205.7L178.3,205.8L179.8,205.8L181.0,206.6L182.3,207.3L183.8,208.5L185.1,208.1L186.6,209.4L188.1,209.2L189.5,209.3L191.3,209.2L193.0,209.4L194.3,210.3L195.9,210.0L197.2,211.3L199.4,211.3L201.3,211.1L202.6,211.7L204.3,212.2L205.8,211.5L207.1,210.9L208.6,210.2L210.0,210.7L211.0,211.9L213.0,212.5L214.5,212.5L213.2,213.6L214.7,213.3L215.4,214.9L216.7,215.7L215.9,217.0L216.7,218.2L218.4,218.4L220.2,219.4L220.9,218.1L222.5,219.0L223.8,220.2L224.0,218.7L223.6,217.2L225.5,217.1L226.3,218.5L227.6,218.8L229.2,219.4L229.0,217.7L228.7,216.2L230.0,216.7L231.3,215.7L232.9,216.0L234.2,215.1L234.1,213.5L234.9,212.2L235.5,210.7L237.6,211.4L236.4,210.4L234.9,208.9L234.8,207.2L236.2,206.9L236.0,205.4L237.0,204.2L238.4,202.8L236.5,202.3L235.5,201.2L235.3,199.5L236.0,198.0L237.5,197.6L237.5,196.0L238.9,195.2L241.0,196.0L242.6,196.4L244.4,196.4L244.7,198.0L245.3,199.4L246.9,200.6L247.5,201.9L247.8,204.1L248.8,205.3L250.2,206.0L251.9,206.4L252.6,207.9L254.4,208.1L255.6,208.8L257.3,209.0L257.3,207.5L258.4,206.3L259.9,207.4L260.8,209.4L262.7,209.4L264.4,210.3L265.6,211.3L266.0,209.8L267.9,210.3L269.7,209.8L271.0,209.4L270.6,207.8L270.3,206.2L270.1,204.6L271.7,204.2L273.5,204.6L274.9,205.8L275.9,204.1L275.5,202.6L274.7,201.3L273.7,200.0L271.8,200.5L270.5,199.9L269.4,198.5L268.3,197.4L267.1,195.7L267.3,194.1L268.8,193.6L270.6,194.1L272.0,194.6L273.5,195.1L275.3,196.1L276.8,196.0L278.4,195.6L279.8,194.6L279.9,192.8L278.4,192.0L277.6,190.4L277.6,188.8L279.0,188.7L279.8,187.5L281.1,186.9L282.2,185.9L281.0,184.7L282.2,183.7L283.0,182.4L284.9,182.6L285.0,180.9L285.8,179.4L287.2,179.7L287.5,178.1L287.3,176.6L286.8,174.9Z"/>
    <path data-code="ningxia" d="M328.0,167.5L328.0,165.7L328.1,163.9L328.8,162.6L330.0,161.7L331.3,161.1L330.1,159.4L328.6,158.1L327.2,157.4L325.5,157.8L324.1,157.4L322.2,156.7L320.6,155.9L322.1,154.4L322.7,152.0L323.9,150.8L325.2,149.1L323.8,147.5L323.4,145.8L321.7,145.8L319.8,146.6L318.8,147.7L317.4,147.9L316.8,149.3L315.7,150.2L315.2,151.9L314.7,153.5L314.5,155.2L314.2,156.8L314.5,158.9L313.8,160.8L312.4,161.6L311.0,161.8L309.6,161.8L307.6,162.4L305.3,163.1L303.1,163.5L301.3,163.5L299.9,164.4L301.3,164.2L303.6,164.6L302.8,166.2L304.5,166.1L305.8,167.5L307.0,168.4L308.3,169.0L309.5,170.2L308.5,171.3L309.2,172.7L310.4,173.9L311.1,175.2L311.5,176.6L309.8,177.7L309.9,179.2L311.1,180.7L312.9,180.4L313.8,181.8L316.2,182.7L317.1,184.2L319.0,185.1L320.5,184.6L320.6,183.0L320.3,181.5L321.6,180.7L323.1,181.0L324.5,180.3L324.6,178.7L325.0,177.2L324.1,176.1L322.6,175.7L321.1,175.6L320.7,174.0L319.8,172.8L320.6,171.5L322.1,171.1L321.9,169.5L322.1,167.9L323.3,167.0L325.4,167.5L327.1,167.1ZM316.5,182.9L315.1,183.3L316.5,183.3Z"/>
    <path data-code="xinjiang" d="M225.5,113.7L225.3,112.0L221.1,108.9L220.5,107.1L219.4,105.4L218.5,103.5L217.4,101.4L216.0,101.3L216.0,99.3L213.6,98.9L211.9,98.7L210.3,98.2L208.7,97.2L206.7,96.5L205.2,95.3L203.6,94.5L200.4,93.2L198.4,92.2L196.6,92.0L194.5,91.9L193.0,91.8L191.5,91.5L189.3,91.8L187.5,91.8L185.1,91.2L183.1,91.2L181.3,91.3L179.5,90.9L177.9,90.7L176.4,90.0L174.8,89.8L173.2,89.1L172.2,87.5L172.1,85.0L173.7,83.1L175.0,82.1L174.3,80.3L174.6,78.8L175.3,77.4L175.1,76.0L174.2,74.5L173.2,72.8L171.9,72.0L170.8,70.9L169.9,69.8L169.8,68.0L168.6,66.7L167.0,65.9L166.2,64.5L164.1,64.8L162.1,64.1L160.6,63.0L158.8,63.0L157.4,63.3L155.5,62.4L154.0,62.0L152.5,61.5L152.2,60.0L150.9,59.5L149.5,58.7L147.9,58.2L146.3,57.7L147.4,56.6L146.2,55.8L144.7,55.3L145.3,54.0L145.1,52.3L143.5,52.2L142.0,52.3L140.0,52.6L138.2,52.2L136.7,52.4L135.0,53.4L135.4,55.1L134.3,56.9L133.1,58.1L131.6,58.6L129.8,59.1L128.2,59.0L125.7,59.2L124.8,60.3L123.8,61.4L123.3,62.8L124.1,67.5L124.9,69.1L124.7,70.7L123.4,71.9L121.6,72.3L119.9,72.8L118.1,73.6L116.2,73.0L114.2,72.9L112.3,72.9L110.7,72.8L109.2,73.1L107.8,73.0L106.0,72.7L104.5,72.0L102.9,71.1L101.4,70.8L99.7,70.7L99.4,72.2L98.7,73.4L97.8,75.0L97.3,76.6L95.8,79.5L94.9,80.9L94.4,82.6L93.2,83.5L92.7,85.1L92.7,86.8L94.2,87.5L95.7,88.6L94.6,90.2L92.8,89.6L91.1,89.9L89.3,89.7L88.0,88.3L86.1,88.7L84.7,89.2L83.3,89.7L81.7,89.8L80.3,90.3L78.9,90.5L76.8,90.9L75.4,91.0L73.9,91.3L72.5,91.5L71.0,92.3L71.2,93.9L72.8,93.4L74.1,94.8L74.5,96.9L74.9,98.6L75.0,100.1L75.5,101.7L76.1,103.3L78.3,106.3L77.6,107.9L78.6,109.1L76.8,109.8L75.1,110.5L76.8,111.8L75.4,112.4L73.8,112.6L73.3,114.0L73.3,115.5L73.3,117.2L72.8,118.7L72.5,120.3L70.5,120.2L69.1,121.7L67.6,122.0L66.1,122.1L64.4,122.7L63.1,123.3L61.7,123.9L60.1,124.8L58.7,125.4L57.3,126.0L55.5,126.4L53.9,126.5L53.6,128.0L52.1,128.6L50.6,128.9L49.4,130.1L47.4,130.2L45.7,130.2L44.0,129.8L42.4,129.9L40.7,130.6L40.1,132.3L39.7,133.8L38.6,134.9L37.7,136.0L36.2,135.8L34.3,136.0L32.9,136.5L31.5,136.9L30.6,135.8L30.0,134.0L28.5,134.0L26.9,135.1L25.4,135.3L23.8,135.3L22.2,135.5L23.2,136.5L21.3,136.5L20.1,137.3L18.8,138.5L17.3,138.8L15.9,138.8L14.2,139.6L13.2,141.4L14.3,143.6L13.1,144.8L11.4,144.8L10.0,145.7L10.7,147.1L12.0,148.3L13.2,149.3L11.9,150.4L12.4,152.0L13.3,153.3L14.8,153.9L16.1,152.4L18.0,152.6L19.5,152.8L21.4,153.7L22.8,154.3L22.1,155.8L22.3,157.3L23.0,158.7L23.5,160.1L23.6,161.5L23.5,163.1L25.0,163.8L25.3,165.4L23.4,165.8L21.8,165.8L20.3,166.0L19.1,167.1L20.0,168.2L21.4,167.7L22.6,168.4L24.2,168.5L25.7,168.3L27.4,168.9L28.2,170.1L29.6,170.8L31.7,171.3L33.0,172.4L33.8,174.1L34.0,175.6L32.9,176.8L33.9,177.8L35.1,178.9L37.0,179.7L38.4,179.2L40.0,180.5L41.5,181.2L42.9,181.8L44.8,182.7L46.3,182.9L47.8,183.0L49.4,183.3L51.0,183.0L52.4,182.9L52.5,184.6L52.9,186.5L53.9,187.7L54.5,189.8L55.0,191.2L56.5,192.0L57.8,192.3L59.5,192.6L60.8,193.8L62.1,193.2L64.0,193.2L65.9,192.9L68.1,192.9L69.9,192.1L70.3,190.6L70.5,189.1L71.4,187.9L73.4,186.2L73.7,184.8L75.3,183.3L76.8,183.7L78.3,184.4L79.9,184.5L81.5,183.7L83.1,184.5L84.8,184.4L87.1,185.4L88.6,185.1L90.3,184.5L90.8,183.1L92.2,182.6L93.2,181.4L94.7,180.9L96.2,181.2L98.2,181.0L99.2,182.4L100.3,183.5L101.8,183.6L103.3,184.0L105.1,184.3L106.8,184.1L108.9,183.6L110.4,184.2L112.0,183.7L113.3,182.7L114.8,181.9L116.4,181.4L118.0,180.8L119.6,180.5L121.5,180.4L123.2,181.1L124.8,180.4L126.8,180.1L128.2,179.6L129.1,178.0L130.0,176.7L131.4,176.1L133.3,175.9L134.7,175.3L136.5,175.5L137.9,175.1L139.9,174.6L141.1,174.0L142.5,174.8L144.0,174.4L145.8,174.3L147.4,173.9L148.8,173.6L150.4,173.5L151.9,173.6L153.7,175.3L155.2,174.6L156.9,175.4L158.7,175.8L160.6,176.6L162.6,177.2L164.5,177.3L165.5,176.0L167.2,176.3L169.3,176.8L171.1,176.8L172.7,177.2L174.0,177.8L175.5,177.2L175.3,175.8L175.3,173.9L173.9,172.7L172.3,172.4L172.2,170.8L173.4,169.3L175.1,169.2L176.5,168.2L177.4,166.9L176.0,165.4L175.5,163.9L173.9,163.5L172.7,162.3L170.9,161.8L170.2,156.9L169.1,155.9L166.6,155.7L166.6,154.2L168.3,154.1L169.7,153.9L171.1,153.2L173.8,152.4L176.5,151.9L179.0,151.1L181.2,150.8L183.1,150.5L185.2,149.7L186.7,149.3L188.1,149.2L187.4,147.9L189.1,145.8L190.2,144.4L190.7,143.1L191.2,141.0L191.7,138.3L192.7,136.8L192.9,134.3L198.4,133.6L200.8,133.4L201.2,131.4L203.1,129.1L204.8,127.6L208.0,125.4L210.1,125.1L211.1,123.8L212.5,123.3L214.0,123.2L215.3,124.8L216.1,123.6L217.8,122.6L219.6,122.2L221.8,121.5L223.1,120.5L223.5,118.6L222.2,117.5L222.0,116.0L223.4,114.7L225.5,113.7Z"/>
    <path data-code="taiwan" d="M452.0,307.8L453.9,309.7L454.1,311.4L454.8,312.8L456.4,311.7L456.5,309.1L457.1,306.9L458.0,305.6L459.2,304.6L460.3,303.0L461.1,301.5L461.4,299.8L462.0,298.4L462.8,295.2L463.1,293.6L463.3,291.9L464.9,289.6L465.4,288.3L465.4,286.4L465.2,284.9L466.8,283.3L465.9,282.0L464.3,281.8L463.1,280.5L461.5,280.7L460.3,282.0L458.5,282.5L456.9,283.9L456.3,285.5L455.0,286.6L453.9,288.2L453.0,289.3L452.1,291.1L450.8,293.0L450.2,294.4L448.8,295.7L449.0,297.6L448.9,299.2L448.0,301.7L449.3,303.4L449.7,305.1L450.4,306.6L452.0,307.8ZM490.6,274.7L491.0,274.6L490.9,274.3L490.6,274.7ZM482.4,274.6L482.8,274.5L482.6,274.3L482.4,274.6ZM443.1,298.7L443.1,299.1L443.3,299.1L443.1,298.7ZM467.3,277.3L467.5,277.5L467.6,277.2L467.3,277.3ZM467.6,278.5L467.7,278.8L467.8,278.6L467.6,278.5ZM442.4,300.4L442.5,300.7L442.7,300.4L442.4,300.4ZM451.2,308.9L451.6,308.7L451.5,308.6L451.2,308.9Z"/>
    <path data-code="hongkong" d="M391.6,307.2L390.6,308.5L389.9,309.8L391.3,310.0L392.5,308.9L393.9,310.1L394.0,308.3L393.8,306.8L392.2,306.9ZM394.2,308.5L394.2,308.4L394.2,308.4L394.2,308.5ZM394.4,308.3L394.4,308.4L394.4,308.4L394.4,308.3ZM394.9,308.9L394.9,308.9L394.9,308.9L394.9,308.9ZM394.4,309.2L394.4,309.2L394.4,309.2L394.4,309.2Z"/>
    <path data-code="macau" d="M387.5,310.1L387.4,310.1L387.4,310.1L387.5,310.1Z"/>
  </g>
</svg>